ISO-10303-21;
HEADER;
/* Generated by software containing ST-Developer
 * from STEP Tools, Inc. (www.steptools.com) 
 */

FILE_DESCRIPTION(
/* description */ (''),
/* implementation_level */ '2;1');

FILE_NAME(
/* name */ '',
/* time_stamp */ '2026-07-06T19:46:14+08:00',
/* author */ (''),
/* organization */ (''),
/* preprocessor_version */ 'ST-DEVELOPER v20.1',
/* originating_system */ 'Autodesk Translation Framework v15.8.0.0',
/* authorisation */ '');

FILE_SCHEMA (('AUTOMOTIVE_DESIGN { 1 0 10303 214 3 1 1 }'));
ENDSEC;

DATA;
#10=MECHANICAL_DESIGN_GEOMETRIC_PRESENTATION_REPRESENTATION('',(#13,#14,
#15),#2272);
#11=SHAPE_REPRESENTATION_RELATIONSHIP('SRR','None',#2279,#12);
#12=ADVANCED_BREP_SHAPE_REPRESENTATION('',(#16,#17,#18),#2271);
#13=STYLED_ITEM('',(#2288),#16);
#14=STYLED_ITEM('',(#2288),#17);
#15=STYLED_ITEM('',(#2288),#18);
#16=MANIFOLD_SOLID_BREP('\X2\5B9E4F53\X0\1',#1358);
#17=MANIFOLD_SOLID_BREP('\X2\5B9E4F53\X0\2',#1359);
#18=MANIFOLD_SOLID_BREP('\X2\5B9E4F53\X0\3',#1360);
#19=FACE_BOUND('',#189,.T.);
#20=FACE_BOUND('',#190,.T.);
#21=FACE_BOUND('',#191,.T.);
#22=FACE_BOUND('',#192,.T.);
#23=FACE_BOUND('',#193,.T.);
#24=FACE_BOUND('',#194,.T.);
#25=FACE_BOUND('',#195,.T.);
#26=FACE_BOUND('',#199,.T.);
#27=FACE_BOUND('',#200,.T.);
#28=FACE_BOUND('',#201,.T.);
#29=FACE_BOUND('',#202,.T.);
#30=FACE_BOUND('',#203,.T.);
#31=FACE_BOUND('',#204,.T.);
#32=FACE_BOUND('',#205,.T.);
#33=FACE_BOUND('',#211,.T.);
#34=FACE_BOUND('',#212,.T.);
#35=FACE_BOUND('',#213,.T.);
#36=FACE_BOUND('',#214,.T.);
#37=FACE_BOUND('',#215,.T.);
#38=FACE_BOUND('',#216,.T.);
#39=FACE_BOUND('',#233,.T.);
#40=FACE_BOUND('',#234,.T.);
#41=FACE_BOUND('',#235,.T.);
#42=FACE_BOUND('',#236,.T.);
#43=FACE_BOUND('',#237,.T.);
#44=FACE_BOUND('',#238,.T.);
#45=FACE_BOUND('',#239,.T.);
#46=FACE_BOUND('',#241,.T.);
#47=FACE_BOUND('',#242,.T.);
#48=FACE_BOUND('',#243,.T.);
#49=FACE_BOUND('',#247,.T.);
#50=FACE_BOUND('',#248,.T.);
#51=FACE_BOUND('',#249,.T.);
#52=FACE_BOUND('',#251,.T.);
#53=FACE_BOUND('',#252,.T.);
#54=FACE_BOUND('',#253,.T.);
#55=FACE_BOUND('',#254,.T.);
#56=FACE_BOUND('',#255,.T.);
#57=FACE_BOUND('',#256,.T.);
#58=FACE_BOUND('',#257,.T.);
#59=FACE_BOUND('',#258,.T.);
#60=FACE_BOUND('',#259,.T.);
#61=FACE_BOUND('',#262,.T.);
#62=FACE_BOUND('',#263,.T.);
#63=FACE_BOUND('',#264,.T.);
#64=FACE_BOUND('',#265,.T.);
#65=FACE_BOUND('',#266,.T.);
#66=FACE_BOUND('',#267,.T.);
#67=FACE_BOUND('',#268,.T.);
#68=FACE_BOUND('',#269,.T.);
#69=FACE_BOUND('',#270,.T.);
#70=FACE_BOUND('',#285,.T.);
#71=FACE_BOUND('',#286,.T.);
#72=FACE_BOUND('',#287,.T.);
#73=FACE_BOUND('',#291,.T.);
#74=FACE_BOUND('',#292,.T.);
#75=FACE_BOUND('',#293,.T.);
#76=FACE_BOUND('',#295,.T.);
#77=FACE_BOUND('',#296,.T.);
#78=FACE_BOUND('',#297,.T.);
#79=FACE_BOUND('',#298,.T.);
#80=FACE_BOUND('',#299,.T.);
#81=FACE_BOUND('',#300,.T.);
#82=FACE_BOUND('',#301,.T.);
#83=FACE_BOUND('',#302,.T.);
#84=FACE_BOUND('',#303,.T.);
#85=FACE_BOUND('',#306,.T.);
#86=FACE_BOUND('',#307,.T.);
#87=FACE_BOUND('',#308,.T.);
#88=FACE_BOUND('',#309,.T.);
#89=FACE_BOUND('',#310,.T.);
#90=FACE_BOUND('',#311,.T.);
#91=FACE_BOUND('',#312,.T.);
#92=FACE_BOUND('',#313,.T.);
#93=FACE_BOUND('',#314,.T.);
#94=PLANE('',#1377);
#95=PLANE('',#1386);
#96=PLANE('',#1389);
#97=PLANE('',#1397);
#98=PLANE('',#1398);
#99=PLANE('',#1401);
#100=PLANE('',#1408);
#101=PLANE('',#1409);
#102=PLANE('',#1410);
#103=PLANE('',#1411);
#104=PLANE('',#1429);
#105=PLANE('',#1430);
#106=PLANE('',#1434);
#107=PLANE('',#1435);
#108=PLANE('',#1436);
#109=PLANE('',#1440);
#110=PLANE('',#1450);
#111=PLANE('',#1451);
#112=PLANE('',#1473);
#113=PLANE('',#1474);
#114=PLANE('',#1478);
#115=PLANE('',#1479);
#116=PLANE('',#1480);
#117=PLANE('',#1484);
#118=PLANE('',#1494);
#119=PLANE('',#1495);
#120=PLANE('',#1505);
#121=FACE_OUTER_BOUND('',#187,.T.);
#122=FACE_OUTER_BOUND('',#188,.T.);
#123=FACE_OUTER_BOUND('',#196,.T.);
#124=FACE_OUTER_BOUND('',#197,.T.);
#125=FACE_OUTER_BOUND('',#198,.T.);
#126=FACE_OUTER_BOUND('',#206,.T.);
#127=FACE_OUTER_BOUND('',#207,.T.);
#128=FACE_OUTER_BOUND('',#208,.T.);
#129=FACE_OUTER_BOUND('',#209,.T.);
#130=FACE_OUTER_BOUND('',#210,.T.);
#131=FACE_OUTER_BOUND('',#217,.T.);
#132=FACE_OUTER_BOUND('',#218,.T.);
#133=FACE_OUTER_BOUND('',#219,.T.);
#134=FACE_OUTER_BOUND('',#220,.T.);
#135=FACE_OUTER_BOUND('',#221,.T.);
#136=FACE_OUTER_BOUND('',#222,.T.);
#137=FACE_OUTER_BOUND('',#223,.T.);
#138=FACE_OUTER_BOUND('',#224,.T.);
#139=FACE_OUTER_BOUND('',#225,.T.);
#140=FACE_OUTER_BOUND('',#226,.T.);
#141=FACE_OUTER_BOUND('',#227,.T.);
#142=FACE_OUTER_BOUND('',#228,.T.);
#143=FACE_OUTER_BOUND('',#229,.T.);
#144=FACE_OUTER_BOUND('',#230,.T.);
#145=FACE_OUTER_BOUND('',#231,.T.);
#146=FACE_OUTER_BOUND('',#232,.T.);
#147=FACE_OUTER_BOUND('',#240,.T.);
#148=FACE_OUTER_BOUND('',#244,.T.);
#149=FACE_OUTER_BOUND('',#245,.T.);
#150=FACE_OUTER_BOUND('',#246,.T.);
#151=FACE_OUTER_BOUND('',#250,.T.);
#152=FACE_OUTER_BOUND('',#260,.T.);
#153=FACE_OUTER_BOUND('',#261,.T.);
#154=FACE_OUTER_BOUND('',#271,.T.);
#155=FACE_OUTER_BOUND('',#272,.T.);
#156=FACE_OUTER_BOUND('',#273,.T.);
#157=FACE_OUTER_BOUND('',#274,.T.);
#158=FACE_OUTER_BOUND('',#275,.T.);
#159=FACE_OUTER_BOUND('',#276,.T.);
#160=FACE_OUTER_BOUND('',#277,.T.);
#161=FACE_OUTER_BOUND('',#278,.T.);
#162=FACE_OUTER_BOUND('',#279,.T.);
#163=FACE_OUTER_BOUND('',#280,.T.);
#164=FACE_OUTER_BOUND('',#281,.T.);
#165=FACE_OUTER_BOUND('',#282,.T.);
#166=FACE_OUTER_BOUND('',#283,.T.);
#167=FACE_OUTER_BOUND('',#284,.T.);
#168=FACE_OUTER_BOUND('',#288,.T.);
#169=FACE_OUTER_BOUND('',#289,.T.);
#170=FACE_OUTER_BOUND('',#290,.T.);
#171=FACE_OUTER_BOUND('',#294,.T.);
#172=FACE_OUTER_BOUND('',#304,.T.);
#173=FACE_OUTER_BOUND('',#305,.T.);
#174=FACE_OUTER_BOUND('',#315,.T.);
#175=FACE_OUTER_BOUND('',#316,.T.);
#176=FACE_OUTER_BOUND('',#317,.T.);
#177=FACE_OUTER_BOUND('',#318,.T.);
#178=FACE_OUTER_BOUND('',#319,.T.);
#179=FACE_OUTER_BOUND('',#320,.T.);
#180=FACE_OUTER_BOUND('',#321,.T.);
#181=FACE_OUTER_BOUND('',#322,.T.);
#182=FACE_OUTER_BOUND('',#323,.T.);
#183=FACE_OUTER_BOUND('',#324,.T.);
#184=FACE_OUTER_BOUND('',#325,.T.);
#185=FACE_OUTER_BOUND('',#326,.T.);
#186=FACE_OUTER_BOUND('',#327,.T.);
#187=EDGE_LOOP('',(#899,#900,#901,#902));
#188=EDGE_LOOP('',(#903,#904,#905,#906,#907,#908));
#189=EDGE_LOOP('',(#909));
#190=EDGE_LOOP('',(#910));
#191=EDGE_LOOP('',(#911));
#192=EDGE_LOOP('',(#912));
#193=EDGE_LOOP('',(#913));
#194=EDGE_LOOP('',(#914));
#195=EDGE_LOOP('',(#915));
#196=EDGE_LOOP('',(#916,#917,#918,#919));
#197=EDGE_LOOP('',(#920,#921,#922,#923));
#198=EDGE_LOOP('',(#924,#925,#926,#927,#928,#929));
#199=EDGE_LOOP('',(#930));
#200=EDGE_LOOP('',(#931));
#201=EDGE_LOOP('',(#932));
#202=EDGE_LOOP('',(#933));
#203=EDGE_LOOP('',(#934));
#204=EDGE_LOOP('',(#935));
#205=EDGE_LOOP('',(#936));
#206=EDGE_LOOP('',(#937,#938,#939,#940));
#207=EDGE_LOOP('',(#941,#942,#943,#944));
#208=EDGE_LOOP('',(#945,#946,#947,#948));
#209=EDGE_LOOP('',(#949,#950,#951,#952));
#210=EDGE_LOOP('',(#953,#954,#955,#956));
#211=EDGE_LOOP('',(#957));
#212=EDGE_LOOP('',(#958));
#213=EDGE_LOOP('',(#959));
#214=EDGE_LOOP('',(#960));
#215=EDGE_LOOP('',(#961));
#216=EDGE_LOOP('',(#962));
#217=EDGE_LOOP('',(#963,#964,#965,#966));
#218=EDGE_LOOP('',(#967,#968,#969,#970));
#219=EDGE_LOOP('',(#971,#972,#973,#974));
#220=EDGE_LOOP('',(#975,#976,#977,#978));
#221=EDGE_LOOP('',(#979,#980,#981,#982));
#222=EDGE_LOOP('',(#983,#984,#985,#986));
#223=EDGE_LOOP('',(#987,#988,#989,#990));
#224=EDGE_LOOP('',(#991,#992,#993,#994));
#225=EDGE_LOOP('',(#995,#996,#997,#998));
#226=EDGE_LOOP('',(#999,#1000,#1001,#1002));
#227=EDGE_LOOP('',(#1003,#1004,#1005,#1006));
#228=EDGE_LOOP('',(#1007,#1008,#1009,#1010));
#229=EDGE_LOOP('',(#1011,#1012,#1013,#1014));
#230=EDGE_LOOP('',(#1015,#1016,#1017,#1018));
#231=EDGE_LOOP('',(#1019,#1020,#1021,#1022));
#232=EDGE_LOOP('',(#1023,#1024,#1025,#1026));
#233=EDGE_LOOP('',(#1027,#1028,#1029,#1030));
#234=EDGE_LOOP('',(#1031));
#235=EDGE_LOOP('',(#1032));
#236=EDGE_LOOP('',(#1033));
#237=EDGE_LOOP('',(#1034));
#238=EDGE_LOOP('',(#1035));
#239=EDGE_LOOP('',(#1036));
#240=EDGE_LOOP('',(#1037,#1038,#1039,#1040));
#241=EDGE_LOOP('',(#1041));
#242=EDGE_LOOP('',(#1042));
#243=EDGE_LOOP('',(#1043));
#244=EDGE_LOOP('',(#1044,#1045,#1046,#1047,#1048,#1049));
#245=EDGE_LOOP('',(#1050,#1051,#1052,#1053));
#246=EDGE_LOOP('',(#1054,#1055,#1056,#1057));
#247=EDGE_LOOP('',(#1058));
#248=EDGE_LOOP('',(#1059));
#249=EDGE_LOOP('',(#1060));
#250=EDGE_LOOP('',(#1061,#1062,#1063,#1064));
#251=EDGE_LOOP('',(#1065));
#252=EDGE_LOOP('',(#1066));
#253=EDGE_LOOP('',(#1067));
#254=EDGE_LOOP('',(#1068));
#255=EDGE_LOOP('',(#1069));
#256=EDGE_LOOP('',(#1070));
#257=EDGE_LOOP('',(#1071));
#258=EDGE_LOOP('',(#1072));
#259=EDGE_LOOP('',(#1073));
#260=EDGE_LOOP('',(#1074,#1075,#1076,#1077,#1078,#1079));
#261=EDGE_LOOP('',(#1080,#1081,#1082,#1083));
#262=EDGE_LOOP('',(#1084));
#263=EDGE_LOOP('',(#1085));
#264=EDGE_LOOP('',(#1086));
#265=EDGE_LOOP('',(#1087));
#266=EDGE_LOOP('',(#1088));
#267=EDGE_LOOP('',(#1089));
#268=EDGE_LOOP('',(#1090));
#269=EDGE_LOOP('',(#1091));
#270=EDGE_LOOP('',(#1092));
#271=EDGE_LOOP('',(#1093,#1094,#1095,#1096));
#272=EDGE_LOOP('',(#1097,#1098,#1099,#1100));
#273=EDGE_LOOP('',(#1101,#1102,#1103,#1104));
#274=EDGE_LOOP('',(#1105,#1106,#1107,#1108));
#275=EDGE_LOOP('',(#1109,#1110,#1111,#1112));
#276=EDGE_LOOP('',(#1113,#1114,#1115,#1116));
#277=EDGE_LOOP('',(#1117,#1118,#1119,#1120));
#278=EDGE_LOOP('',(#1121,#1122,#1123,#1124));
#279=EDGE_LOOP('',(#1125,#1126,#1127,#1128));
#280=EDGE_LOOP('',(#1129,#1130,#1131,#1132));
#281=EDGE_LOOP('',(#1133,#1134,#1135,#1136));
#282=EDGE_LOOP('',(#1137,#1138,#1139,#1140));
#283=EDGE_LOOP('',(#1141,#1142,#1143,#1144));
#284=EDGE_LOOP('',(#1145,#1146,#1147,#1148));
#285=EDGE_LOOP('',(#1149));
#286=EDGE_LOOP('',(#1150));
#287=EDGE_LOOP('',(#1151));
#288=EDGE_LOOP('',(#1152,#1153,#1154,#1155,#1156,#1157));
#289=EDGE_LOOP('',(#1158,#1159,#1160,#1161));
#290=EDGE_LOOP('',(#1162,#1163,#1164,#1165));
#291=EDGE_LOOP('',(#1166));
#292=EDGE_LOOP('',(#1167));
#293=EDGE_LOOP('',(#1168));
#294=EDGE_LOOP('',(#1169,#1170,#1171,#1172));
#295=EDGE_LOOP('',(#1173));
#296=EDGE_LOOP('',(#1174));
#297=EDGE_LOOP('',(#1175));
#298=EDGE_LOOP('',(#1176));
#299=EDGE_LOOP('',(#1177));
#300=EDGE_LOOP('',(#1178));
#301=EDGE_LOOP('',(#1179));
#302=EDGE_LOOP('',(#1180));
#303=EDGE_LOOP('',(#1181));
#304=EDGE_LOOP('',(#1182,#1183,#1184,#1185,#1186,#1187));
#305=EDGE_LOOP('',(#1188,#1189,#1190,#1191));
#306=EDGE_LOOP('',(#1192));
#307=EDGE_LOOP('',(#1193));
#308=EDGE_LOOP('',(#1194));
#309=EDGE_LOOP('',(#1195));
#310=EDGE_LOOP('',(#1196));
#311=EDGE_LOOP('',(#1197));
#312=EDGE_LOOP('',(#1198));
#313=EDGE_LOOP('',(#1199));
#314=EDGE_LOOP('',(#1200));
#315=EDGE_LOOP('',(#1201,#1202,#1203,#1204));
#316=EDGE_LOOP('',(#1205,#1206,#1207,#1208));
#317=EDGE_LOOP('',(#1209,#1210,#1211,#1212));
#318=EDGE_LOOP('',(#1213,#1214,#1215,#1216));
#319=EDGE_LOOP('',(#1217,#1218,#1219,#1220));
#320=EDGE_LOOP('',(#1221,#1222,#1223,#1224));
#321=EDGE_LOOP('',(#1225,#1226,#1227,#1228));
#322=EDGE_LOOP('',(#1229,#1230,#1231,#1232));
#323=EDGE_LOOP('',(#1233,#1234,#1235,#1236));
#324=EDGE_LOOP('',(#1237,#1238,#1239,#1240));
#325=EDGE_LOOP('',(#1241,#1242,#1243,#1244));
#326=EDGE_LOOP('',(#1245,#1246,#1247,#1248));
#327=EDGE_LOOP('',(#1249,#1250,#1251,#1252));
#328=LINE('',#1913,#427);
#329=LINE('',#1916,#428);
#330=LINE('',#1919,#429);
#331=LINE('',#1923,#430);
#332=LINE('',#1925,#431);
#333=LINE('',#1926,#432);
#334=LINE('',#1943,#433);
#335=LINE('',#1944,#434);
#336=LINE('',#1948,#435);
#337=LINE('',#1951,#436);
#338=LINE('',#1953,#437);
#339=LINE('',#1954,#438);
#340=LINE('',#1970,#439);
#341=LINE('',#1972,#440);
#342=LINE('',#1974,#441);
#343=LINE('',#1976,#442);
#344=LINE('',#1980,#443);
#345=LINE('',#1982,#444);
#346=LINE('',#1984,#445);
#347=LINE('',#1985,#446);
#348=LINE('',#2000,#447);
#349=LINE('',#2002,#448);
#350=LINE('',#2003,#449);
#351=LINE('',#2006,#450);
#352=LINE('',#2007,#451);
#353=LINE('',#2010,#452);
#354=LINE('',#2011,#453);
#355=LINE('',#2013,#454);
#356=LINE('',#2016,#455);
#357=LINE('',#2020,#456);
#358=LINE('',#2024,#457);
#359=LINE('',#2028,#458);
#360=LINE('',#2032,#459);
#361=LINE('',#2036,#460);
#362=LINE('',#2039,#461);
#363=LINE('',#2041,#462);
#364=LINE('',#2043,#463);
#365=LINE('',#2045,#464);
#366=LINE('',#2047,#465);
#367=LINE('',#2052,#466);
#368=LINE('',#2054,#467);
#369=LINE('',#2056,#468);
#370=LINE('',#2057,#469);
#371=LINE('',#2066,#470);
#372=LINE('',#2068,#471);
#373=LINE('',#2070,#472);
#374=LINE('',#2072,#473);
#375=LINE('',#2073,#474);
#376=LINE('',#2076,#475);
#377=LINE('',#2077,#476);
#378=LINE('',#2080,#477);
#379=LINE('',#2081,#478);
#380=LINE('',#2090,#479);
#381=LINE('',#2091,#480);
#382=LINE('',#2112,#481);
#383=LINE('',#2113,#482);
#384=LINE('',#2115,#483);
#385=LINE('',#2135,#484);
#386=LINE('',#2137,#485);
#387=LINE('',#2139,#486);
#388=LINE('',#2141,#487);
#389=LINE('',#2143,#488);
#390=LINE('',#2145,#489);
#391=LINE('',#2147,#490);
#392=LINE('',#2149,#491);
#393=LINE('',#2151,#492);
#394=LINE('',#2153,#493);
#395=LINE('',#2155,#494);
#396=LINE('',#2157,#495);
#397=LINE('',#2162,#496);
#398=LINE('',#2164,#497);
#399=LINE('',#2166,#498);
#400=LINE('',#2167,#499);
#401=LINE('',#2176,#500);
#402=LINE('',#2178,#501);
#403=LINE('',#2180,#502);
#404=LINE('',#2182,#503);
#405=LINE('',#2183,#504);
#406=LINE('',#2186,#505);
#407=LINE('',#2187,#506);
#408=LINE('',#2190,#507);
#409=LINE('',#2191,#508);
#410=LINE('',#2200,#509);
#411=LINE('',#2201,#510);
#412=LINE('',#2222,#511);
#413=LINE('',#2223,#512);
#414=LINE('',#2225,#513);
#415=LINE('',#2246,#514);
#416=LINE('',#2248,#515);
#417=LINE('',#2250,#516);
#418=LINE('',#2252,#517);
#419=LINE('',#2254,#518);
#420=LINE('',#2256,#519);
#421=LINE('',#2258,#520);
#422=LINE('',#2260,#521);
#423=LINE('',#2262,#522);
#424=LINE('',#2264,#523);
#425=LINE('',#2266,#524);
#426=LINE('',#2268,#525);
#427=VECTOR('',#1524,10.);
#428=VECTOR('',#1527,10.);
#429=VECTOR('',#1530,10.);
#430=VECTOR('',#1533,10.);
#431=VECTOR('',#1534,10.);
#432=VECTOR('',#1535,10.);
#433=VECTOR('',#1552,10.);
#434=VECTOR('',#1553,10.);
#435=VECTOR('',#1558,10.);
#436=VECTOR('',#1561,10.);
#437=VECTOR('',#1562,10.);
#438=VECTOR('',#1563,10.);
#439=VECTOR('',#1580,10.);
#440=VECTOR('',#1583,10.);
#441=VECTOR('',#1586,7.52);
#442=VECTOR('',#1589,7.52);
#443=VECTOR('',#1592,10.);
#444=VECTOR('',#1593,10.);
#445=VECTOR('',#1594,10.);
#446=VECTOR('',#1595,10.);
#447=VECTOR('',#1610,10.);
#448=VECTOR('',#1611,10.);
#449=VECTOR('',#1612,10.);
#450=VECTOR('',#1615,10.);
#451=VECTOR('',#1616,10.);
#452=VECTOR('',#1619,10.);
#453=VECTOR('',#1620,10.);
#454=VECTOR('',#1623,10.);
#455=VECTOR('',#1626,2.515);
#456=VECTOR('',#1631,2.515);
#457=VECTOR('',#1636,2.515);
#458=VECTOR('',#1641,2.515);
#459=VECTOR('',#1646,2.515);
#460=VECTOR('',#1651,2.515);
#461=VECTOR('',#1656,1.45);
#462=VECTOR('',#1659,5.15);
#463=VECTOR('',#1662,1.45);
#464=VECTOR('',#1665,1.45);
#465=VECTOR('',#1668,1.45);
#466=VECTOR('',#1673,10.);
#467=VECTOR('',#1674,10.);
#468=VECTOR('',#1675,10.);
#469=VECTOR('',#1676,10.);
#470=VECTOR('',#1685,10.);
#471=VECTOR('',#1686,10.);
#472=VECTOR('',#1687,10.);
#473=VECTOR('',#1688,10.);
#474=VECTOR('',#1689,10.);
#475=VECTOR('',#1692,10.);
#476=VECTOR('',#1693,10.);
#477=VECTOR('',#1696,10.);
#478=VECTOR('',#1697,10.);
#479=VECTOR('',#1706,10.);
#480=VECTOR('',#1707,10.);
#481=VECTOR('',#1728,10.);
#482=VECTOR('',#1729,10.);
#483=VECTOR('',#1732,10.);
#484=VECTOR('',#1753,2.515);
#485=VECTOR('',#1756,2.515);
#486=VECTOR('',#1759,2.515);
#487=VECTOR('',#1762,2.515);
#488=VECTOR('',#1765,2.515);
#489=VECTOR('',#1768,2.515);
#490=VECTOR('',#1771,2.515);
#491=VECTOR('',#1774,2.515);
#492=VECTOR('',#1777,2.515);
#493=VECTOR('',#1780,2.515);
#494=VECTOR('',#1783,2.515);
#495=VECTOR('',#1786,2.515);
#496=VECTOR('',#1791,10.);
#497=VECTOR('',#1792,10.);
#498=VECTOR('',#1793,10.);
#499=VECTOR('',#1794,10.);
#500=VECTOR('',#1803,10.);
#501=VECTOR('',#1804,10.);
#502=VECTOR('',#1805,10.);
#503=VECTOR('',#1806,10.);
#504=VECTOR('',#1807,10.);
#505=VECTOR('',#1810,10.);
#506=VECTOR('',#1811,10.);
#507=VECTOR('',#1814,10.);
#508=VECTOR('',#1815,10.);
#509=VECTOR('',#1824,10.);
#510=VECTOR('',#1825,10.);
#511=VECTOR('',#1846,10.);
#512=VECTOR('',#1847,10.);
#513=VECTOR('',#1850,10.);
#514=VECTOR('',#1873,2.515);
#515=VECTOR('',#1876,2.515);
#516=VECTOR('',#1879,2.515);
#517=VECTOR('',#1882,2.515);
#518=VECTOR('',#1885,2.515);
#519=VECTOR('',#1888,2.515);
#520=VECTOR('',#1891,2.515);
#521=VECTOR('',#1894,2.515);
#522=VECTOR('',#1897,2.515);
#523=VECTOR('',#1900,2.515);
#524=VECTOR('',#1903,2.515);
#525=VECTOR('',#1906,2.515);
#526=CIRCLE('',#1375,3.);
#527=CIRCLE('',#1376,3.);
#528=CIRCLE('',#1378,3.);
#529=CIRCLE('',#1379,7.52);
#530=CIRCLE('',#1380,7.52);
#531=CIRCLE('',#1381,1.45);
#532=CIRCLE('',#1382,1.45);
#533=CIRCLE('',#1383,1.45);
#534=CIRCLE('',#1384,5.15);
#535=CIRCLE('',#1385,1.45);
#536=CIRCLE('',#1388,3.);
#537=CIRCLE('',#1390,7.52);
#538=CIRCLE('',#1391,7.52);
#539=CIRCLE('',#1392,1.45);
#540=CIRCLE('',#1393,5.15);
#541=CIRCLE('',#1394,1.45);
#542=CIRCLE('',#1395,1.45);
#543=CIRCLE('',#1396,1.45);
#544=CIRCLE('',#1402,2.515);
#545=CIRCLE('',#1403,2.515);
#546=CIRCLE('',#1404,2.515);
#547=CIRCLE('',#1405,2.515);
#548=CIRCLE('',#1406,2.515);
#549=CIRCLE('',#1407,2.515);
#550=CIRCLE('',#1413,2.515);
#551=CIRCLE('',#1415,2.515);
#552=CIRCLE('',#1417,2.515);
#553=CIRCLE('',#1419,2.515);
#554=CIRCLE('',#1421,2.515);
#555=CIRCLE('',#1423,2.515);
#556=CIRCLE('',#1431,2.515);
#557=CIRCLE('',#1432,2.515);
#558=CIRCLE('',#1433,2.515);
#559=CIRCLE('',#1437,2.515);
#560=CIRCLE('',#1438,2.515);
#561=CIRCLE('',#1439,2.515);
#562=CIRCLE('',#1441,2.515);
#563=CIRCLE('',#1442,2.515);
#564=CIRCLE('',#1443,2.515);
#565=CIRCLE('',#1444,2.515);
#566=CIRCLE('',#1445,2.515);
#567=CIRCLE('',#1446,2.515);
#568=CIRCLE('',#1447,2.515);
#569=CIRCLE('',#1448,2.515);
#570=CIRCLE('',#1449,2.515);
#571=CIRCLE('',#1452,2.515);
#572=CIRCLE('',#1453,2.515);
#573=CIRCLE('',#1454,2.515);
#574=CIRCLE('',#1455,2.515);
#575=CIRCLE('',#1456,2.515);
#576=CIRCLE('',#1457,2.515);
#577=CIRCLE('',#1458,2.515);
#578=CIRCLE('',#1459,2.515);
#579=CIRCLE('',#1460,2.515);
#580=CIRCLE('',#1475,2.515);
#581=CIRCLE('',#1476,2.515);
#582=CIRCLE('',#1477,2.515);
#583=CIRCLE('',#1481,2.515);
#584=CIRCLE('',#1482,2.515);
#585=CIRCLE('',#1483,2.515);
#586=CIRCLE('',#1485,2.515);
#587=CIRCLE('',#1486,2.515);
#588=CIRCLE('',#1487,2.515);
#589=CIRCLE('',#1488,2.515);
#590=CIRCLE('',#1489,2.515);
#591=CIRCLE('',#1490,2.515);
#592=CIRCLE('',#1491,2.515);
#593=CIRCLE('',#1492,2.515);
#594=CIRCLE('',#1493,2.515);
#595=CIRCLE('',#1496,2.515);
#596=CIRCLE('',#1497,2.515);
#597=CIRCLE('',#1498,2.515);
#598=CIRCLE('',#1499,2.515);
#599=CIRCLE('',#1500,2.515);
#600=CIRCLE('',#1501,2.515);
#601=CIRCLE('',#1502,2.515);
#602=CIRCLE('',#1503,2.515);
#603=CIRCLE('',#1504,2.515);
#604=VERTEX_POINT('',#1909);
#605=VERTEX_POINT('',#1910);
#606=VERTEX_POINT('',#1912);
#607=VERTEX_POINT('',#1914);
#608=VERTEX_POINT('',#1918);
#609=VERTEX_POINT('',#1920);
#610=VERTEX_POINT('',#1922);
#611=VERTEX_POINT('',#1924);
#612=VERTEX_POINT('',#1927);
#613=VERTEX_POINT('',#1929);
#614=VERTEX_POINT('',#1931);
#615=VERTEX_POINT('',#1933);
#616=VERTEX_POINT('',#1935);
#617=VERTEX_POINT('',#1937);
#618=VERTEX_POINT('',#1939);
#619=VERTEX_POINT('',#1942);
#620=VERTEX_POINT('',#1946);
#621=VERTEX_POINT('',#1950);
#622=VERTEX_POINT('',#1952);
#623=VERTEX_POINT('',#1955);
#624=VERTEX_POINT('',#1957);
#625=VERTEX_POINT('',#1959);
#626=VERTEX_POINT('',#1961);
#627=VERTEX_POINT('',#1963);
#628=VERTEX_POINT('',#1965);
#629=VERTEX_POINT('',#1967);
#630=VERTEX_POINT('',#1978);
#631=VERTEX_POINT('',#1979);
#632=VERTEX_POINT('',#1981);
#633=VERTEX_POINT('',#1983);
#634=VERTEX_POINT('',#1986);
#635=VERTEX_POINT('',#1988);
#636=VERTEX_POINT('',#1990);
#637=VERTEX_POINT('',#1992);
#638=VERTEX_POINT('',#1994);
#639=VERTEX_POINT('',#1996);
#640=VERTEX_POINT('',#1999);
#641=VERTEX_POINT('',#2001);
#642=VERTEX_POINT('',#2005);
#643=VERTEX_POINT('',#2009);
#644=VERTEX_POINT('',#2015);
#645=VERTEX_POINT('',#2019);
#646=VERTEX_POINT('',#2023);
#647=VERTEX_POINT('',#2027);
#648=VERTEX_POINT('',#2031);
#649=VERTEX_POINT('',#2035);
#650=VERTEX_POINT('',#2050);
#651=VERTEX_POINT('',#2051);
#652=VERTEX_POINT('',#2053);
#653=VERTEX_POINT('',#2055);
#654=VERTEX_POINT('',#2058);
#655=VERTEX_POINT('',#2060);
#656=VERTEX_POINT('',#2062);
#657=VERTEX_POINT('',#2065);
#658=VERTEX_POINT('',#2067);
#659=VERTEX_POINT('',#2069);
#660=VERTEX_POINT('',#2071);
#661=VERTEX_POINT('',#2075);
#662=VERTEX_POINT('',#2079);
#663=VERTEX_POINT('',#2082);
#664=VERTEX_POINT('',#2084);
#665=VERTEX_POINT('',#2086);
#666=VERTEX_POINT('',#2089);
#667=VERTEX_POINT('',#2092);
#668=VERTEX_POINT('',#2094);
#669=VERTEX_POINT('',#2096);
#670=VERTEX_POINT('',#2098);
#671=VERTEX_POINT('',#2100);
#672=VERTEX_POINT('',#2102);
#673=VERTEX_POINT('',#2104);
#674=VERTEX_POINT('',#2106);
#675=VERTEX_POINT('',#2108);
#676=VERTEX_POINT('',#2111);
#677=VERTEX_POINT('',#2116);
#678=VERTEX_POINT('',#2118);
#679=VERTEX_POINT('',#2120);
#680=VERTEX_POINT('',#2122);
#681=VERTEX_POINT('',#2124);
#682=VERTEX_POINT('',#2126);
#683=VERTEX_POINT('',#2128);
#684=VERTEX_POINT('',#2130);
#685=VERTEX_POINT('',#2132);
#686=VERTEX_POINT('',#2160);
#687=VERTEX_POINT('',#2161);
#688=VERTEX_POINT('',#2163);
#689=VERTEX_POINT('',#2165);
#690=VERTEX_POINT('',#2168);
#691=VERTEX_POINT('',#2170);
#692=VERTEX_POINT('',#2172);
#693=VERTEX_POINT('',#2175);
#694=VERTEX_POINT('',#2177);
#695=VERTEX_POINT('',#2179);
#696=VERTEX_POINT('',#2181);
#697=VERTEX_POINT('',#2185);
#698=VERTEX_POINT('',#2189);
#699=VERTEX_POINT('',#2192);
#700=VERTEX_POINT('',#2194);
#701=VERTEX_POINT('',#2196);
#702=VERTEX_POINT('',#2199);
#703=VERTEX_POINT('',#2202);
#704=VERTEX_POINT('',#2204);
#705=VERTEX_POINT('',#2206);
#706=VERTEX_POINT('',#2208);
#707=VERTEX_POINT('',#2210);
#708=VERTEX_POINT('',#2212);
#709=VERTEX_POINT('',#2214);
#710=VERTEX_POINT('',#2216);
#711=VERTEX_POINT('',#2218);
#712=VERTEX_POINT('',#2221);
#713=VERTEX_POINT('',#2226);
#714=VERTEX_POINT('',#2228);
#715=VERTEX_POINT('',#2230);
#716=VERTEX_POINT('',#2232);
#717=VERTEX_POINT('',#2234);
#718=VERTEX_POINT('',#2236);
#719=VERTEX_POINT('',#2238);
#720=VERTEX_POINT('',#2240);
#721=VERTEX_POINT('',#2242);
#722=EDGE_CURVE('',#604,#605,#526,.T.);
#723=EDGE_CURVE('',#605,#606,#328,.T.);
#724=EDGE_CURVE('',#606,#607,#527,.T.);
#725=EDGE_CURVE('',#607,#604,#329,.T.);
#726=EDGE_CURVE('',#604,#608,#330,.T.);
#727=EDGE_CURVE('',#609,#608,#528,.T.);
#728=EDGE_CURVE('',#610,#609,#331,.T.);
#729=EDGE_CURVE('',#611,#610,#332,.T.);
#730=EDGE_CURVE('',#611,#605,#333,.T.);
#731=EDGE_CURVE('',#612,#612,#529,.T.);
#732=EDGE_CURVE('',#613,#613,#530,.T.);
#733=EDGE_CURVE('',#614,#614,#531,.T.);
#734=EDGE_CURVE('',#615,#615,#532,.T.);
#735=EDGE_CURVE('',#616,#616,#533,.T.);
#736=EDGE_CURVE('',#617,#617,#534,.T.);
#737=EDGE_CURVE('',#618,#618,#535,.T.);
#738=EDGE_CURVE('',#619,#607,#334,.T.);
#739=EDGE_CURVE('',#608,#619,#335,.T.);
#740=EDGE_CURVE('',#619,#620,#536,.T.);
#741=EDGE_CURVE('',#620,#609,#336,.T.);
#742=EDGE_CURVE('',#621,#606,#337,.T.);
#743=EDGE_CURVE('',#622,#621,#338,.T.);
#744=EDGE_CURVE('',#622,#620,#339,.T.);
#745=EDGE_CURVE('',#623,#623,#537,.T.);
#746=EDGE_CURVE('',#624,#624,#538,.T.);
#747=EDGE_CURVE('',#625,#625,#539,.T.);
#748=EDGE_CURVE('',#626,#626,#540,.T.);
#749=EDGE_CURVE('',#627,#627,#541,.T.);
#750=EDGE_CURVE('',#628,#628,#542,.T.);
#751=EDGE_CURVE('',#629,#629,#543,.T.);
#752=EDGE_CURVE('',#621,#611,#340,.T.);
#753=EDGE_CURVE('',#610,#622,#341,.T.);
#754=EDGE_CURVE('',#612,#623,#342,.T.);
#755=EDGE_CURVE('',#613,#624,#343,.T.);
#756=EDGE_CURVE('',#630,#631,#344,.T.);
#757=EDGE_CURVE('',#632,#630,#345,.T.);
#758=EDGE_CURVE('',#633,#632,#346,.T.);
#759=EDGE_CURVE('',#631,#633,#347,.T.);
#760=EDGE_CURVE('',#634,#634,#544,.T.);
#761=EDGE_CURVE('',#635,#635,#545,.T.);
#762=EDGE_CURVE('',#636,#636,#546,.T.);
#763=EDGE_CURVE('',#637,#637,#547,.T.);
#764=EDGE_CURVE('',#638,#638,#548,.T.);
#765=EDGE_CURVE('',#639,#639,#549,.T.);
#766=EDGE_CURVE('',#632,#640,#348,.T.);
#767=EDGE_CURVE('',#641,#640,#349,.T.);
#768=EDGE_CURVE('',#633,#641,#350,.T.);
#769=EDGE_CURVE('',#630,#642,#351,.T.);
#770=EDGE_CURVE('',#640,#642,#352,.T.);
#771=EDGE_CURVE('',#643,#631,#353,.T.);
#772=EDGE_CURVE('',#642,#643,#354,.T.);
#773=EDGE_CURVE('',#643,#641,#355,.T.);
#774=EDGE_CURVE('',#639,#644,#356,.T.);
#775=EDGE_CURVE('',#644,#644,#550,.T.);
#776=EDGE_CURVE('',#638,#645,#357,.T.);
#777=EDGE_CURVE('',#645,#645,#551,.T.);
#778=EDGE_CURVE('',#637,#646,#358,.T.);
#779=EDGE_CURVE('',#646,#646,#552,.T.);
#780=EDGE_CURVE('',#636,#647,#359,.T.);
#781=EDGE_CURVE('',#647,#647,#553,.T.);
#782=EDGE_CURVE('',#635,#648,#360,.T.);
#783=EDGE_CURVE('',#648,#648,#554,.T.);
#784=EDGE_CURVE('',#634,#649,#361,.T.);
#785=EDGE_CURVE('',#649,#649,#555,.T.);
#786=EDGE_CURVE('',#618,#625,#362,.T.);
#787=EDGE_CURVE('',#617,#626,#363,.T.);
#788=EDGE_CURVE('',#616,#627,#364,.T.);
#789=EDGE_CURVE('',#615,#628,#365,.T.);
#790=EDGE_CURVE('',#614,#629,#366,.T.);
#791=EDGE_CURVE('',#650,#651,#367,.T.);
#792=EDGE_CURVE('',#652,#650,#368,.T.);
#793=EDGE_CURVE('',#653,#652,#369,.T.);
#794=EDGE_CURVE('',#651,#653,#370,.T.);
#795=EDGE_CURVE('',#654,#654,#556,.T.);
#796=EDGE_CURVE('',#655,#655,#557,.T.);
#797=EDGE_CURVE('',#656,#656,#558,.T.);
#798=EDGE_CURVE('',#653,#657,#371,.T.);
#799=EDGE_CURVE('',#658,#657,#372,.T.);
#800=EDGE_CURVE('',#659,#658,#373,.T.);
#801=EDGE_CURVE('',#660,#659,#374,.T.);
#802=EDGE_CURVE('',#660,#651,#375,.T.);
#803=EDGE_CURVE('',#652,#661,#376,.T.);
#804=EDGE_CURVE('',#657,#661,#377,.T.);
#805=EDGE_CURVE('',#658,#662,#378,.T.);
#806=EDGE_CURVE('',#661,#662,#379,.T.);
#807=EDGE_CURVE('',#663,#663,#559,.T.);
#808=EDGE_CURVE('',#664,#664,#560,.T.);
#809=EDGE_CURVE('',#665,#665,#561,.T.);
#810=EDGE_CURVE('',#666,#662,#380,.T.);
#811=EDGE_CURVE('',#659,#666,#381,.T.);
#812=EDGE_CURVE('',#667,#667,#562,.T.);
#813=EDGE_CURVE('',#668,#668,#563,.T.);
#814=EDGE_CURVE('',#669,#669,#564,.T.);
#815=EDGE_CURVE('',#670,#670,#565,.T.);
#816=EDGE_CURVE('',#671,#671,#566,.T.);
#817=EDGE_CURVE('',#672,#672,#567,.T.);
#818=EDGE_CURVE('',#673,#673,#568,.T.);
#819=EDGE_CURVE('',#674,#674,#569,.T.);
#820=EDGE_CURVE('',#675,#675,#570,.T.);
#821=EDGE_CURVE('',#650,#676,#382,.T.);
#822=EDGE_CURVE('',#666,#676,#383,.T.);
#823=EDGE_CURVE('',#676,#660,#384,.T.);
#824=EDGE_CURVE('',#677,#677,#571,.T.);
#825=EDGE_CURVE('',#678,#678,#572,.T.);
#826=EDGE_CURVE('',#679,#679,#573,.T.);
#827=EDGE_CURVE('',#680,#680,#574,.T.);
#828=EDGE_CURVE('',#681,#681,#575,.T.);
#829=EDGE_CURVE('',#682,#682,#576,.T.);
#830=EDGE_CURVE('',#683,#683,#577,.T.);
#831=EDGE_CURVE('',#684,#684,#578,.T.);
#832=EDGE_CURVE('',#685,#685,#579,.T.);
#833=EDGE_CURVE('',#656,#663,#385,.T.);
#834=EDGE_CURVE('',#655,#664,#386,.T.);
#835=EDGE_CURVE('',#654,#665,#387,.T.);
#836=EDGE_CURVE('',#685,#667,#388,.T.);
#837=EDGE_CURVE('',#684,#668,#389,.T.);
#838=EDGE_CURVE('',#683,#669,#390,.T.);
#839=EDGE_CURVE('',#682,#670,#391,.T.);
#840=EDGE_CURVE('',#681,#671,#392,.T.);
#841=EDGE_CURVE('',#680,#672,#393,.T.);
#842=EDGE_CURVE('',#679,#673,#394,.T.);
#843=EDGE_CURVE('',#678,#674,#395,.T.);
#844=EDGE_CURVE('',#677,#675,#396,.T.);
#845=EDGE_CURVE('',#686,#687,#397,.T.);
#846=EDGE_CURVE('',#688,#686,#398,.T.);
#847=EDGE_CURVE('',#689,#688,#399,.T.);
#848=EDGE_CURVE('',#687,#689,#400,.T.);
#849=EDGE_CURVE('',#690,#690,#580,.T.);
#850=EDGE_CURVE('',#691,#691,#581,.T.);
#851=EDGE_CURVE('',#692,#692,#582,.T.);
#852=EDGE_CURVE('',#689,#693,#401,.T.);
#853=EDGE_CURVE('',#694,#693,#402,.T.);
#854=EDGE_CURVE('',#695,#694,#403,.T.);
#855=EDGE_CURVE('',#695,#696,#404,.T.);
#856=EDGE_CURVE('',#696,#687,#405,.T.);
#857=EDGE_CURVE('',#688,#697,#406,.T.);
#858=EDGE_CURVE('',#693,#697,#407,.T.);
#859=EDGE_CURVE('',#694,#698,#408,.T.);
#860=EDGE_CURVE('',#697,#698,#409,.T.);
#861=EDGE_CURVE('',#699,#699,#583,.T.);
#862=EDGE_CURVE('',#700,#700,#584,.T.);
#863=EDGE_CURVE('',#701,#701,#585,.T.);
#864=EDGE_CURVE('',#702,#698,#410,.T.);
#865=EDGE_CURVE('',#702,#695,#411,.T.);
#866=EDGE_CURVE('',#703,#703,#586,.T.);
#867=EDGE_CURVE('',#704,#704,#587,.T.);
#868=EDGE_CURVE('',#705,#705,#588,.T.);
#869=EDGE_CURVE('',#706,#706,#589,.T.);
#870=EDGE_CURVE('',#707,#707,#590,.T.);
#871=EDGE_CURVE('',#708,#708,#591,.T.);
#872=EDGE_CURVE('',#709,#709,#592,.T.);
#873=EDGE_CURVE('',#710,#710,#593,.T.);
#874=EDGE_CURVE('',#711,#711,#594,.T.);
#875=EDGE_CURVE('',#686,#712,#412,.T.);
#876=EDGE_CURVE('',#712,#702,#413,.T.);
#877=EDGE_CURVE('',#712,#696,#414,.T.);
#878=EDGE_CURVE('',#713,#713,#595,.T.);
#879=EDGE_CURVE('',#714,#714,#596,.T.);
#880=EDGE_CURVE('',#715,#715,#597,.T.);
#881=EDGE_CURVE('',#716,#716,#598,.T.);
#882=EDGE_CURVE('',#717,#717,#599,.T.);
#883=EDGE_CURVE('',#718,#718,#600,.T.);
#884=EDGE_CURVE('',#719,#719,#601,.T.);
#885=EDGE_CURVE('',#720,#720,#602,.T.);
#886=EDGE_CURVE('',#721,#721,#603,.T.);
#887=EDGE_CURVE('',#690,#699,#415,.T.);
#888=EDGE_CURVE('',#691,#700,#416,.T.);
#889=EDGE_CURVE('',#692,#701,#417,.T.);
#890=EDGE_CURVE('',#721,#703,#418,.T.);
#891=EDGE_CURVE('',#720,#704,#419,.T.);
#892=EDGE_CURVE('',#719,#705,#420,.T.);
#893=EDGE_CURVE('',#718,#706,#421,.T.);
#894=EDGE_CURVE('',#717,#707,#422,.T.);
#895=EDGE_CURVE('',#716,#708,#423,.T.);
#896=EDGE_CURVE('',#715,#709,#424,.T.);
#897=EDGE_CURVE('',#714,#710,#425,.T.);
#898=EDGE_CURVE('',#713,#711,#426,.T.);
#899=ORIENTED_EDGE('',*,*,#722,.T.);
#900=ORIENTED_EDGE('',*,*,#723,.T.);
#901=ORIENTED_EDGE('',*,*,#724,.T.);
#902=ORIENTED_EDGE('',*,*,#725,.T.);
#903=ORIENTED_EDGE('',*,*,#722,.F.);
#904=ORIENTED_EDGE('',*,*,#726,.T.);
#905=ORIENTED_EDGE('',*,*,#727,.F.);
#906=ORIENTED_EDGE('',*,*,#728,.F.);
#907=ORIENTED_EDGE('',*,*,#729,.F.);
#908=ORIENTED_EDGE('',*,*,#730,.T.);
#909=ORIENTED_EDGE('',*,*,#731,.T.);
#910=ORIENTED_EDGE('',*,*,#732,.T.);
#911=ORIENTED_EDGE('',*,*,#733,.T.);
#912=ORIENTED_EDGE('',*,*,#734,.T.);
#913=ORIENTED_EDGE('',*,*,#735,.T.);
#914=ORIENTED_EDGE('',*,*,#736,.T.);
#915=ORIENTED_EDGE('',*,*,#737,.T.);
#916=ORIENTED_EDGE('',*,*,#725,.F.);
#917=ORIENTED_EDGE('',*,*,#738,.F.);
#918=ORIENTED_EDGE('',*,*,#739,.F.);
#919=ORIENTED_EDGE('',*,*,#726,.F.);
#920=ORIENTED_EDGE('',*,*,#740,.T.);
#921=ORIENTED_EDGE('',*,*,#741,.T.);
#922=ORIENTED_EDGE('',*,*,#727,.T.);
#923=ORIENTED_EDGE('',*,*,#739,.T.);
#924=ORIENTED_EDGE('',*,*,#724,.F.);
#925=ORIENTED_EDGE('',*,*,#742,.F.);
#926=ORIENTED_EDGE('',*,*,#743,.F.);
#927=ORIENTED_EDGE('',*,*,#744,.T.);
#928=ORIENTED_EDGE('',*,*,#740,.F.);
#929=ORIENTED_EDGE('',*,*,#738,.T.);
#930=ORIENTED_EDGE('',*,*,#745,.T.);
#931=ORIENTED_EDGE('',*,*,#746,.T.);
#932=ORIENTED_EDGE('',*,*,#747,.T.);
#933=ORIENTED_EDGE('',*,*,#748,.T.);
#934=ORIENTED_EDGE('',*,*,#749,.T.);
#935=ORIENTED_EDGE('',*,*,#750,.T.);
#936=ORIENTED_EDGE('',*,*,#751,.T.);
#937=ORIENTED_EDGE('',*,*,#723,.F.);
#938=ORIENTED_EDGE('',*,*,#730,.F.);
#939=ORIENTED_EDGE('',*,*,#752,.F.);
#940=ORIENTED_EDGE('',*,*,#742,.T.);
#941=ORIENTED_EDGE('',*,*,#741,.F.);
#942=ORIENTED_EDGE('',*,*,#744,.F.);
#943=ORIENTED_EDGE('',*,*,#753,.F.);
#944=ORIENTED_EDGE('',*,*,#728,.T.);
#945=ORIENTED_EDGE('',*,*,#731,.F.);
#946=ORIENTED_EDGE('',*,*,#754,.T.);
#947=ORIENTED_EDGE('',*,*,#745,.F.);
#948=ORIENTED_EDGE('',*,*,#754,.F.);
#949=ORIENTED_EDGE('',*,*,#732,.F.);
#950=ORIENTED_EDGE('',*,*,#755,.T.);
#951=ORIENTED_EDGE('',*,*,#746,.F.);
#952=ORIENTED_EDGE('',*,*,#755,.F.);
#953=ORIENTED_EDGE('',*,*,#756,.F.);
#954=ORIENTED_EDGE('',*,*,#757,.F.);
#955=ORIENTED_EDGE('',*,*,#758,.F.);
#956=ORIENTED_EDGE('',*,*,#759,.F.);
#957=ORIENTED_EDGE('',*,*,#760,.F.);
#958=ORIENTED_EDGE('',*,*,#761,.F.);
#959=ORIENTED_EDGE('',*,*,#762,.F.);
#960=ORIENTED_EDGE('',*,*,#763,.F.);
#961=ORIENTED_EDGE('',*,*,#764,.F.);
#962=ORIENTED_EDGE('',*,*,#765,.F.);
#963=ORIENTED_EDGE('',*,*,#758,.T.);
#964=ORIENTED_EDGE('',*,*,#766,.T.);
#965=ORIENTED_EDGE('',*,*,#767,.F.);
#966=ORIENTED_EDGE('',*,*,#768,.F.);
#967=ORIENTED_EDGE('',*,*,#757,.T.);
#968=ORIENTED_EDGE('',*,*,#769,.T.);
#969=ORIENTED_EDGE('',*,*,#770,.F.);
#970=ORIENTED_EDGE('',*,*,#766,.F.);
#971=ORIENTED_EDGE('',*,*,#756,.T.);
#972=ORIENTED_EDGE('',*,*,#771,.F.);
#973=ORIENTED_EDGE('',*,*,#772,.F.);
#974=ORIENTED_EDGE('',*,*,#769,.F.);
#975=ORIENTED_EDGE('',*,*,#759,.T.);
#976=ORIENTED_EDGE('',*,*,#768,.T.);
#977=ORIENTED_EDGE('',*,*,#773,.F.);
#978=ORIENTED_EDGE('',*,*,#771,.T.);
#979=ORIENTED_EDGE('',*,*,#765,.T.);
#980=ORIENTED_EDGE('',*,*,#774,.T.);
#981=ORIENTED_EDGE('',*,*,#775,.F.);
#982=ORIENTED_EDGE('',*,*,#774,.F.);
#983=ORIENTED_EDGE('',*,*,#764,.T.);
#984=ORIENTED_EDGE('',*,*,#776,.T.);
#985=ORIENTED_EDGE('',*,*,#777,.F.);
#986=ORIENTED_EDGE('',*,*,#776,.F.);
#987=ORIENTED_EDGE('',*,*,#763,.T.);
#988=ORIENTED_EDGE('',*,*,#778,.T.);
#989=ORIENTED_EDGE('',*,*,#779,.F.);
#990=ORIENTED_EDGE('',*,*,#778,.F.);
#991=ORIENTED_EDGE('',*,*,#762,.T.);
#992=ORIENTED_EDGE('',*,*,#780,.T.);
#993=ORIENTED_EDGE('',*,*,#781,.F.);
#994=ORIENTED_EDGE('',*,*,#780,.F.);
#995=ORIENTED_EDGE('',*,*,#761,.T.);
#996=ORIENTED_EDGE('',*,*,#782,.T.);
#997=ORIENTED_EDGE('',*,*,#783,.F.);
#998=ORIENTED_EDGE('',*,*,#782,.F.);
#999=ORIENTED_EDGE('',*,*,#760,.T.);
#1000=ORIENTED_EDGE('',*,*,#784,.T.);
#1001=ORIENTED_EDGE('',*,*,#785,.F.);
#1002=ORIENTED_EDGE('',*,*,#784,.F.);
#1003=ORIENTED_EDGE('',*,*,#737,.F.);
#1004=ORIENTED_EDGE('',*,*,#786,.T.);
#1005=ORIENTED_EDGE('',*,*,#747,.F.);
#1006=ORIENTED_EDGE('',*,*,#786,.F.);
#1007=ORIENTED_EDGE('',*,*,#736,.F.);
#1008=ORIENTED_EDGE('',*,*,#787,.T.);
#1009=ORIENTED_EDGE('',*,*,#748,.F.);
#1010=ORIENTED_EDGE('',*,*,#787,.F.);
#1011=ORIENTED_EDGE('',*,*,#735,.F.);
#1012=ORIENTED_EDGE('',*,*,#788,.T.);
#1013=ORIENTED_EDGE('',*,*,#749,.F.);
#1014=ORIENTED_EDGE('',*,*,#788,.F.);
#1015=ORIENTED_EDGE('',*,*,#734,.F.);
#1016=ORIENTED_EDGE('',*,*,#789,.T.);
#1017=ORIENTED_EDGE('',*,*,#750,.F.);
#1018=ORIENTED_EDGE('',*,*,#789,.F.);
#1019=ORIENTED_EDGE('',*,*,#733,.F.);
#1020=ORIENTED_EDGE('',*,*,#790,.T.);
#1021=ORIENTED_EDGE('',*,*,#751,.F.);
#1022=ORIENTED_EDGE('',*,*,#790,.F.);
#1023=ORIENTED_EDGE('',*,*,#772,.T.);
#1024=ORIENTED_EDGE('',*,*,#773,.T.);
#1025=ORIENTED_EDGE('',*,*,#767,.T.);
#1026=ORIENTED_EDGE('',*,*,#770,.T.);
#1027=ORIENTED_EDGE('',*,*,#729,.T.);
#1028=ORIENTED_EDGE('',*,*,#753,.T.);
#1029=ORIENTED_EDGE('',*,*,#743,.T.);
#1030=ORIENTED_EDGE('',*,*,#752,.T.);
#1031=ORIENTED_EDGE('',*,*,#775,.T.);
#1032=ORIENTED_EDGE('',*,*,#777,.T.);
#1033=ORIENTED_EDGE('',*,*,#779,.T.);
#1034=ORIENTED_EDGE('',*,*,#781,.T.);
#1035=ORIENTED_EDGE('',*,*,#783,.T.);
#1036=ORIENTED_EDGE('',*,*,#785,.T.);
#1037=ORIENTED_EDGE('',*,*,#791,.F.);
#1038=ORIENTED_EDGE('',*,*,#792,.F.);
#1039=ORIENTED_EDGE('',*,*,#793,.F.);
#1040=ORIENTED_EDGE('',*,*,#794,.F.);
#1041=ORIENTED_EDGE('',*,*,#795,.F.);
#1042=ORIENTED_EDGE('',*,*,#796,.F.);
#1043=ORIENTED_EDGE('',*,*,#797,.F.);
#1044=ORIENTED_EDGE('',*,*,#794,.T.);
#1045=ORIENTED_EDGE('',*,*,#798,.T.);
#1046=ORIENTED_EDGE('',*,*,#799,.F.);
#1047=ORIENTED_EDGE('',*,*,#800,.F.);
#1048=ORIENTED_EDGE('',*,*,#801,.F.);
#1049=ORIENTED_EDGE('',*,*,#802,.T.);
#1050=ORIENTED_EDGE('',*,*,#793,.T.);
#1051=ORIENTED_EDGE('',*,*,#803,.T.);
#1052=ORIENTED_EDGE('',*,*,#804,.F.);
#1053=ORIENTED_EDGE('',*,*,#798,.F.);
#1054=ORIENTED_EDGE('',*,*,#805,.F.);
#1055=ORIENTED_EDGE('',*,*,#799,.T.);
#1056=ORIENTED_EDGE('',*,*,#804,.T.);
#1057=ORIENTED_EDGE('',*,*,#806,.T.);
#1058=ORIENTED_EDGE('',*,*,#807,.T.);
#1059=ORIENTED_EDGE('',*,*,#808,.T.);
#1060=ORIENTED_EDGE('',*,*,#809,.T.);
#1061=ORIENTED_EDGE('',*,*,#805,.T.);
#1062=ORIENTED_EDGE('',*,*,#810,.F.);
#1063=ORIENTED_EDGE('',*,*,#811,.F.);
#1064=ORIENTED_EDGE('',*,*,#800,.T.);
#1065=ORIENTED_EDGE('',*,*,#812,.T.);
#1066=ORIENTED_EDGE('',*,*,#813,.T.);
#1067=ORIENTED_EDGE('',*,*,#814,.T.);
#1068=ORIENTED_EDGE('',*,*,#815,.T.);
#1069=ORIENTED_EDGE('',*,*,#816,.T.);
#1070=ORIENTED_EDGE('',*,*,#817,.T.);
#1071=ORIENTED_EDGE('',*,*,#818,.T.);
#1072=ORIENTED_EDGE('',*,*,#819,.T.);
#1073=ORIENTED_EDGE('',*,*,#820,.T.);
#1074=ORIENTED_EDGE('',*,*,#792,.T.);
#1075=ORIENTED_EDGE('',*,*,#821,.T.);
#1076=ORIENTED_EDGE('',*,*,#822,.F.);
#1077=ORIENTED_EDGE('',*,*,#810,.T.);
#1078=ORIENTED_EDGE('',*,*,#806,.F.);
#1079=ORIENTED_EDGE('',*,*,#803,.F.);
#1080=ORIENTED_EDGE('',*,*,#791,.T.);
#1081=ORIENTED_EDGE('',*,*,#802,.F.);
#1082=ORIENTED_EDGE('',*,*,#823,.F.);
#1083=ORIENTED_EDGE('',*,*,#821,.F.);
#1084=ORIENTED_EDGE('',*,*,#824,.F.);
#1085=ORIENTED_EDGE('',*,*,#825,.F.);
#1086=ORIENTED_EDGE('',*,*,#826,.F.);
#1087=ORIENTED_EDGE('',*,*,#827,.F.);
#1088=ORIENTED_EDGE('',*,*,#828,.F.);
#1089=ORIENTED_EDGE('',*,*,#829,.F.);
#1090=ORIENTED_EDGE('',*,*,#830,.F.);
#1091=ORIENTED_EDGE('',*,*,#831,.F.);
#1092=ORIENTED_EDGE('',*,*,#832,.F.);
#1093=ORIENTED_EDGE('',*,*,#797,.T.);
#1094=ORIENTED_EDGE('',*,*,#833,.T.);
#1095=ORIENTED_EDGE('',*,*,#807,.F.);
#1096=ORIENTED_EDGE('',*,*,#833,.F.);
#1097=ORIENTED_EDGE('',*,*,#796,.T.);
#1098=ORIENTED_EDGE('',*,*,#834,.T.);
#1099=ORIENTED_EDGE('',*,*,#808,.F.);
#1100=ORIENTED_EDGE('',*,*,#834,.F.);
#1101=ORIENTED_EDGE('',*,*,#795,.T.);
#1102=ORIENTED_EDGE('',*,*,#835,.T.);
#1103=ORIENTED_EDGE('',*,*,#809,.F.);
#1104=ORIENTED_EDGE('',*,*,#835,.F.);
#1105=ORIENTED_EDGE('',*,*,#832,.T.);
#1106=ORIENTED_EDGE('',*,*,#836,.T.);
#1107=ORIENTED_EDGE('',*,*,#812,.F.);
#1108=ORIENTED_EDGE('',*,*,#836,.F.);
#1109=ORIENTED_EDGE('',*,*,#831,.T.);
#1110=ORIENTED_EDGE('',*,*,#837,.T.);
#1111=ORIENTED_EDGE('',*,*,#813,.F.);
#1112=ORIENTED_EDGE('',*,*,#837,.F.);
#1113=ORIENTED_EDGE('',*,*,#830,.T.);
#1114=ORIENTED_EDGE('',*,*,#838,.T.);
#1115=ORIENTED_EDGE('',*,*,#814,.F.);
#1116=ORIENTED_EDGE('',*,*,#838,.F.);
#1117=ORIENTED_EDGE('',*,*,#829,.T.);
#1118=ORIENTED_EDGE('',*,*,#839,.T.);
#1119=ORIENTED_EDGE('',*,*,#815,.F.);
#1120=ORIENTED_EDGE('',*,*,#839,.F.);
#1121=ORIENTED_EDGE('',*,*,#828,.T.);
#1122=ORIENTED_EDGE('',*,*,#840,.T.);
#1123=ORIENTED_EDGE('',*,*,#816,.F.);
#1124=ORIENTED_EDGE('',*,*,#840,.F.);
#1125=ORIENTED_EDGE('',*,*,#827,.T.);
#1126=ORIENTED_EDGE('',*,*,#841,.T.);
#1127=ORIENTED_EDGE('',*,*,#817,.F.);
#1128=ORIENTED_EDGE('',*,*,#841,.F.);
#1129=ORIENTED_EDGE('',*,*,#826,.T.);
#1130=ORIENTED_EDGE('',*,*,#842,.T.);
#1131=ORIENTED_EDGE('',*,*,#818,.F.);
#1132=ORIENTED_EDGE('',*,*,#842,.F.);
#1133=ORIENTED_EDGE('',*,*,#825,.T.);
#1134=ORIENTED_EDGE('',*,*,#843,.T.);
#1135=ORIENTED_EDGE('',*,*,#819,.F.);
#1136=ORIENTED_EDGE('',*,*,#843,.F.);
#1137=ORIENTED_EDGE('',*,*,#824,.T.);
#1138=ORIENTED_EDGE('',*,*,#844,.T.);
#1139=ORIENTED_EDGE('',*,*,#820,.F.);
#1140=ORIENTED_EDGE('',*,*,#844,.F.);
#1141=ORIENTED_EDGE('',*,*,#823,.T.);
#1142=ORIENTED_EDGE('',*,*,#801,.T.);
#1143=ORIENTED_EDGE('',*,*,#811,.T.);
#1144=ORIENTED_EDGE('',*,*,#822,.T.);
#1145=ORIENTED_EDGE('',*,*,#845,.F.);
#1146=ORIENTED_EDGE('',*,*,#846,.F.);
#1147=ORIENTED_EDGE('',*,*,#847,.F.);
#1148=ORIENTED_EDGE('',*,*,#848,.F.);
#1149=ORIENTED_EDGE('',*,*,#849,.F.);
#1150=ORIENTED_EDGE('',*,*,#850,.F.);
#1151=ORIENTED_EDGE('',*,*,#851,.F.);
#1152=ORIENTED_EDGE('',*,*,#848,.T.);
#1153=ORIENTED_EDGE('',*,*,#852,.T.);
#1154=ORIENTED_EDGE('',*,*,#853,.F.);
#1155=ORIENTED_EDGE('',*,*,#854,.F.);
#1156=ORIENTED_EDGE('',*,*,#855,.T.);
#1157=ORIENTED_EDGE('',*,*,#856,.T.);
#1158=ORIENTED_EDGE('',*,*,#847,.T.);
#1159=ORIENTED_EDGE('',*,*,#857,.T.);
#1160=ORIENTED_EDGE('',*,*,#858,.F.);
#1161=ORIENTED_EDGE('',*,*,#852,.F.);
#1162=ORIENTED_EDGE('',*,*,#859,.F.);
#1163=ORIENTED_EDGE('',*,*,#853,.T.);
#1164=ORIENTED_EDGE('',*,*,#858,.T.);
#1165=ORIENTED_EDGE('',*,*,#860,.T.);
#1166=ORIENTED_EDGE('',*,*,#861,.T.);
#1167=ORIENTED_EDGE('',*,*,#862,.T.);
#1168=ORIENTED_EDGE('',*,*,#863,.T.);
#1169=ORIENTED_EDGE('',*,*,#859,.T.);
#1170=ORIENTED_EDGE('',*,*,#864,.F.);
#1171=ORIENTED_EDGE('',*,*,#865,.T.);
#1172=ORIENTED_EDGE('',*,*,#854,.T.);
#1173=ORIENTED_EDGE('',*,*,#866,.T.);
#1174=ORIENTED_EDGE('',*,*,#867,.T.);
#1175=ORIENTED_EDGE('',*,*,#868,.T.);
#1176=ORIENTED_EDGE('',*,*,#869,.T.);
#1177=ORIENTED_EDGE('',*,*,#870,.T.);
#1178=ORIENTED_EDGE('',*,*,#871,.T.);
#1179=ORIENTED_EDGE('',*,*,#872,.T.);
#1180=ORIENTED_EDGE('',*,*,#873,.T.);
#1181=ORIENTED_EDGE('',*,*,#874,.T.);
#1182=ORIENTED_EDGE('',*,*,#846,.T.);
#1183=ORIENTED_EDGE('',*,*,#875,.T.);
#1184=ORIENTED_EDGE('',*,*,#876,.T.);
#1185=ORIENTED_EDGE('',*,*,#864,.T.);
#1186=ORIENTED_EDGE('',*,*,#860,.F.);
#1187=ORIENTED_EDGE('',*,*,#857,.F.);
#1188=ORIENTED_EDGE('',*,*,#845,.T.);
#1189=ORIENTED_EDGE('',*,*,#856,.F.);
#1190=ORIENTED_EDGE('',*,*,#877,.F.);
#1191=ORIENTED_EDGE('',*,*,#875,.F.);
#1192=ORIENTED_EDGE('',*,*,#878,.F.);
#1193=ORIENTED_EDGE('',*,*,#879,.F.);
#1194=ORIENTED_EDGE('',*,*,#880,.F.);
#1195=ORIENTED_EDGE('',*,*,#881,.F.);
#1196=ORIENTED_EDGE('',*,*,#882,.F.);
#1197=ORIENTED_EDGE('',*,*,#883,.F.);
#1198=ORIENTED_EDGE('',*,*,#884,.F.);
#1199=ORIENTED_EDGE('',*,*,#885,.F.);
#1200=ORIENTED_EDGE('',*,*,#886,.F.);
#1201=ORIENTED_EDGE('',*,*,#877,.T.);
#1202=ORIENTED_EDGE('',*,*,#855,.F.);
#1203=ORIENTED_EDGE('',*,*,#865,.F.);
#1204=ORIENTED_EDGE('',*,*,#876,.F.);
#1205=ORIENTED_EDGE('',*,*,#849,.T.);
#1206=ORIENTED_EDGE('',*,*,#887,.T.);
#1207=ORIENTED_EDGE('',*,*,#861,.F.);
#1208=ORIENTED_EDGE('',*,*,#887,.F.);
#1209=ORIENTED_EDGE('',*,*,#850,.T.);
#1210=ORIENTED_EDGE('',*,*,#888,.T.);
#1211=ORIENTED_EDGE('',*,*,#862,.F.);
#1212=ORIENTED_EDGE('',*,*,#888,.F.);
#1213=ORIENTED_EDGE('',*,*,#851,.T.);
#1214=ORIENTED_EDGE('',*,*,#889,.T.);
#1215=ORIENTED_EDGE('',*,*,#863,.F.);
#1216=ORIENTED_EDGE('',*,*,#889,.F.);
#1217=ORIENTED_EDGE('',*,*,#886,.T.);
#1218=ORIENTED_EDGE('',*,*,#890,.T.);
#1219=ORIENTED_EDGE('',*,*,#866,.F.);
#1220=ORIENTED_EDGE('',*,*,#890,.F.);
#1221=ORIENTED_EDGE('',*,*,#885,.T.);
#1222=ORIENTED_EDGE('',*,*,#891,.T.);
#1223=ORIENTED_EDGE('',*,*,#867,.F.);
#1224=ORIENTED_EDGE('',*,*,#891,.F.);
#1225=ORIENTED_EDGE('',*,*,#884,.T.);
#1226=ORIENTED_EDGE('',*,*,#892,.T.);
#1227=ORIENTED_EDGE('',*,*,#868,.F.);
#1228=ORIENTED_EDGE('',*,*,#892,.F.);
#1229=ORIENTED_EDGE('',*,*,#883,.T.);
#1230=ORIENTED_EDGE('',*,*,#893,.T.);
#1231=ORIENTED_EDGE('',*,*,#869,.F.);
#1232=ORIENTED_EDGE('',*,*,#893,.F.);
#1233=ORIENTED_EDGE('',*,*,#882,.T.);
#1234=ORIENTED_EDGE('',*,*,#894,.T.);
#1235=ORIENTED_EDGE('',*,*,#870,.F.);
#1236=ORIENTED_EDGE('',*,*,#894,.F.);
#1237=ORIENTED_EDGE('',*,*,#881,.T.);
#1238=ORIENTED_EDGE('',*,*,#895,.T.);
#1239=ORIENTED_EDGE('',*,*,#871,.F.);
#1240=ORIENTED_EDGE('',*,*,#895,.F.);
#1241=ORIENTED_EDGE('',*,*,#880,.T.);
#1242=ORIENTED_EDGE('',*,*,#896,.T.);
#1243=ORIENTED_EDGE('',*,*,#872,.F.);
#1244=ORIENTED_EDGE('',*,*,#896,.F.);
#1245=ORIENTED_EDGE('',*,*,#879,.T.);
#1246=ORIENTED_EDGE('',*,*,#897,.T.);
#1247=ORIENTED_EDGE('',*,*,#873,.F.);
#1248=ORIENTED_EDGE('',*,*,#897,.F.);
#1249=ORIENTED_EDGE('',*,*,#878,.T.);
#1250=ORIENTED_EDGE('',*,*,#898,.T.);
#1251=ORIENTED_EDGE('',*,*,#874,.F.);
#1252=ORIENTED_EDGE('',*,*,#898,.F.);
#1253=CYLINDRICAL_SURFACE('',#1374,3.);
#1254=CYLINDRICAL_SURFACE('',#1387,3.);
#1255=CYLINDRICAL_SURFACE('',#1399,7.52);
#1256=CYLINDRICAL_SURFACE('',#1400,7.52);
#1257=CYLINDRICAL_SURFACE('',#1412,2.515);
#1258=CYLINDRICAL_SURFACE('',#1414,2.515);
#1259=CYLINDRICAL_SURFACE('',#1416,2.515);
#1260=CYLINDRICAL_SURFACE('',#1418,2.515);
#1261=CYLINDRICAL_SURFACE('',#1420,2.515);
#1262=CYLINDRICAL_SURFACE('',#1422,2.515);
#1263=CYLINDRICAL_SURFACE('',#1424,1.45);
#1264=CYLINDRICAL_SURFACE('',#1425,5.15);
#1265=CYLINDRICAL_SURFACE('',#1426,1.45);
#1266=CYLINDRICAL_SURFACE('',#1427,1.45);
#1267=CYLINDRICAL_SURFACE('',#1428,1.45);
#1268=CYLINDRICAL_SURFACE('',#1461,2.515);
#1269=CYLINDRICAL_SURFACE('',#1462,2.515);
#1270=CYLINDRICAL_SURFACE('',#1463,2.515);
#1271=CYLINDRICAL_SURFACE('',#1464,2.515);
#1272=CYLINDRICAL_SURFACE('',#1465,2.515);
#1273=CYLINDRICAL_SURFACE('',#1466,2.515);
#1274=CYLINDRICAL_SURFACE('',#1467,2.515);
#1275=CYLINDRICAL_SURFACE('',#1468,2.515);
#1276=CYLINDRICAL_SURFACE('',#1469,2.515);
#1277=CYLINDRICAL_SURFACE('',#1470,2.515);
#1278=CYLINDRICAL_SURFACE('',#1471,2.515);
#1279=CYLINDRICAL_SURFACE('',#1472,2.515);
#1280=CYLINDRICAL_SURFACE('',#1506,2.515);
#1281=CYLINDRICAL_SURFACE('',#1507,2.515);
#1282=CYLINDRICAL_SURFACE('',#1508,2.515);
#1283=CYLINDRICAL_SURFACE('',#1509,2.515);
#1284=CYLINDRICAL_SURFACE('',#1510,2.515);
#1285=CYLINDRICAL_SURFACE('',#1511,2.515);
#1286=CYLINDRICAL_SURFACE('',#1512,2.515);
#1287=CYLINDRICAL_SURFACE('',#1513,2.515);
#1288=CYLINDRICAL_SURFACE('',#1514,2.515);
#1289=CYLINDRICAL_SURFACE('',#1515,2.515);
#1290=CYLINDRICAL_SURFACE('',#1516,2.515);
#1291=CYLINDRICAL_SURFACE('',#1517,2.515);
#1292=ADVANCED_FACE('',(#121),#1253,.T.);
#1293=ADVANCED_FACE('',(#122,#19,#20,#21,#22,#23,#24,#25),#94,.T.);
#1294=ADVANCED_FACE('',(#123),#95,.T.);
#1295=ADVANCED_FACE('',(#124),#1254,.T.);
#1296=ADVANCED_FACE('',(#125,#26,#27,#28,#29,#30,#31,#32),#96,.T.);
#1297=ADVANCED_FACE('',(#126),#97,.T.);
#1298=ADVANCED_FACE('',(#127),#98,.T.);
#1299=ADVANCED_FACE('',(#128),#1255,.F.);
#1300=ADVANCED_FACE('',(#129),#1256,.F.);
#1301=ADVANCED_FACE('',(#130,#33,#34,#35,#36,#37,#38),#99,.F.);
#1302=ADVANCED_FACE('',(#131),#100,.F.);
#1303=ADVANCED_FACE('',(#132),#101,.T.);
#1304=ADVANCED_FACE('',(#133),#102,.F.);
#1305=ADVANCED_FACE('',(#134),#103,.T.);
#1306=ADVANCED_FACE('',(#135),#1257,.F.);
#1307=ADVANCED_FACE('',(#136),#1258,.F.);
#1308=ADVANCED_FACE('',(#137),#1259,.F.);
#1309=ADVANCED_FACE('',(#138),#1260,.F.);
#1310=ADVANCED_FACE('',(#139),#1261,.F.);
#1311=ADVANCED_FACE('',(#140),#1262,.F.);
#1312=ADVANCED_FACE('',(#141),#1263,.F.);
#1313=ADVANCED_FACE('',(#142),#1264,.F.);
#1314=ADVANCED_FACE('',(#143),#1265,.F.);
#1315=ADVANCED_FACE('',(#144),#1266,.F.);
#1316=ADVANCED_FACE('',(#145),#1267,.F.);
#1317=ADVANCED_FACE('',(#146,#39,#40,#41,#42,#43,#44,#45),#104,.T.);
#1318=ADVANCED_FACE('',(#147,#46,#47,#48),#105,.T.);
#1319=ADVANCED_FACE('',(#148),#106,.T.);
#1320=ADVANCED_FACE('',(#149),#107,.T.);
#1321=ADVANCED_FACE('',(#150,#49,#50,#51),#108,.T.);
#1322=ADVANCED_FACE('',(#151,#52,#53,#54,#55,#56,#57,#58,#59,#60),#109,
 .T.);
#1323=ADVANCED_FACE('',(#152),#110,.T.);
#1324=ADVANCED_FACE('',(#153,#61,#62,#63,#64,#65,#66,#67,#68,#69),#111,
 .F.);
#1325=ADVANCED_FACE('',(#154),#1268,.F.);
#1326=ADVANCED_FACE('',(#155),#1269,.F.);
#1327=ADVANCED_FACE('',(#156),#1270,.F.);
#1328=ADVANCED_FACE('',(#157),#1271,.F.);
#1329=ADVANCED_FACE('',(#158),#1272,.F.);
#1330=ADVANCED_FACE('',(#159),#1273,.F.);
#1331=ADVANCED_FACE('',(#160),#1274,.F.);
#1332=ADVANCED_FACE('',(#161),#1275,.F.);
#1333=ADVANCED_FACE('',(#162),#1276,.F.);
#1334=ADVANCED_FACE('',(#163),#1277,.F.);
#1335=ADVANCED_FACE('',(#164),#1278,.F.);
#1336=ADVANCED_FACE('',(#165),#1279,.F.);
#1337=ADVANCED_FACE('',(#166),#112,.F.);
#1338=ADVANCED_FACE('',(#167,#70,#71,#72),#113,.T.);
#1339=ADVANCED_FACE('',(#168),#114,.T.);
#1340=ADVANCED_FACE('',(#169),#115,.T.);
#1341=ADVANCED_FACE('',(#170,#73,#74,#75),#116,.T.);
#1342=ADVANCED_FACE('',(#171,#76,#77,#78,#79,#80,#81,#82,#83,#84),#117,
 .T.);
#1343=ADVANCED_FACE('',(#172),#118,.T.);
#1344=ADVANCED_FACE('',(#173,#85,#86,#87,#88,#89,#90,#91,#92,#93),#119,
 .T.);
#1345=ADVANCED_FACE('',(#174),#120,.F.);
#1346=ADVANCED_FACE('',(#175),#1280,.F.);
#1347=ADVANCED_FACE('',(#176),#1281,.F.);
#1348=ADVANCED_FACE('',(#177),#1282,.F.);
#1349=ADVANCED_FACE('',(#178),#1283,.F.);
#1350=ADVANCED_FACE('',(#179),#1284,.F.);
#1351=ADVANCED_FACE('',(#180),#1285,.F.);
#1352=ADVANCED_FACE('',(#181),#1286,.F.);
#1353=ADVANCED_FACE('',(#182),#1287,.F.);
#1354=ADVANCED_FACE('',(#183),#1288,.F.);
#1355=ADVANCED_FACE('',(#184),#1289,.F.);
#1356=ADVANCED_FACE('',(#185),#1290,.F.);
#1357=ADVANCED_FACE('',(#186),#1291,.F.);
#1358=CLOSED_SHELL('',(#1292,#1293,#1294,#1295,#1296,#1297,#1298,#1299,
#1300,#1301,#1302,#1303,#1304,#1305,#1306,#1307,#1308,#1309,#1310,#1311,
#1312,#1313,#1314,#1315,#1316,#1317));
#1359=CLOSED_SHELL('',(#1318,#1319,#1320,#1321,#1322,#1323,#1324,#1325,
#1326,#1327,#1328,#1329,#1330,#1331,#1332,#1333,#1334,#1335,#1336,#1337));
#1360=CLOSED_SHELL('',(#1338,#1339,#1340,#1341,#1342,#1343,#1344,#1345,
#1346,#1347,#1348,#1349,#1350,#1351,#1352,#1353,#1354,#1355,#1356,#1357));
#1361=DERIVED_UNIT_ELEMENT(#1363,1.);
#1362=DERIVED_UNIT_ELEMENT(#2274,-3.);
#1363=(
MASS_UNIT()
NAMED_UNIT(*)
SI_UNIT(.KILO.,.GRAM.)
);
#1364=DERIVED_UNIT((#1361,#1362));
#1365=MEASURE_REPRESENTATION_ITEM('density measure',
POSITIVE_RATIO_MEASURE(7850.),#1364);
#1366=PROPERTY_DEFINITION_REPRESENTATION(#1371,#1368);
#1367=PROPERTY_DEFINITION_REPRESENTATION(#1372,#1369);
#1368=REPRESENTATION('material name',(#1370),#2271);
#1369=REPRESENTATION('density',(#1365),#2271);
#1370=DESCRIPTIVE_REPRESENTATION_ITEM('\X2\94A2\X0\','\X2\94A2\X0\');
#1371=PROPERTY_DEFINITION('material property','material name',#2281);
#1372=PROPERTY_DEFINITION('material property','density of part',#2281);
#1373=AXIS2_PLACEMENT_3D('',#1907,#1518,#1519);
#1374=AXIS2_PLACEMENT_3D('',#1908,#1520,#1521);
#1375=AXIS2_PLACEMENT_3D('',#1911,#1522,#1523);
#1376=AXIS2_PLACEMENT_3D('',#1915,#1525,#1526);
#1377=AXIS2_PLACEMENT_3D('',#1917,#1528,#1529);
#1378=AXIS2_PLACEMENT_3D('',#1921,#1531,#1532);
#1379=AXIS2_PLACEMENT_3D('',#1928,#1536,#1537);
#1380=AXIS2_PLACEMENT_3D('',#1930,#1538,#1539);
#1381=AXIS2_PLACEMENT_3D('',#1932,#1540,#1541);
#1382=AXIS2_PLACEMENT_3D('',#1934,#1542,#1543);
#1383=AXIS2_PLACEMENT_3D('',#1936,#1544,#1545);
#1384=AXIS2_PLACEMENT_3D('',#1938,#1546,#1547);
#1385=AXIS2_PLACEMENT_3D('',#1940,#1548,#1549);
#1386=AXIS2_PLACEMENT_3D('',#1941,#1550,#1551);
#1387=AXIS2_PLACEMENT_3D('',#1945,#1554,#1555);
#1388=AXIS2_PLACEMENT_3D('',#1947,#1556,#1557);
#1389=AXIS2_PLACEMENT_3D('',#1949,#1559,#1560);
#1390=AXIS2_PLACEMENT_3D('',#1956,#1564,#1565);
#1391=AXIS2_PLACEMENT_3D('',#1958,#1566,#1567);
#1392=AXIS2_PLACEMENT_3D('',#1960,#1568,#1569);
#1393=AXIS2_PLACEMENT_3D('',#1962,#1570,#1571);
#1394=AXIS2_PLACEMENT_3D('',#1964,#1572,#1573);
#1395=AXIS2_PLACEMENT_3D('',#1966,#1574,#1575);
#1396=AXIS2_PLACEMENT_3D('',#1968,#1576,#1577);
#1397=AXIS2_PLACEMENT_3D('',#1969,#1578,#1579);
#1398=AXIS2_PLACEMENT_3D('',#1971,#1581,#1582);
#1399=AXIS2_PLACEMENT_3D('',#1973,#1584,#1585);
#1400=AXIS2_PLACEMENT_3D('',#1975,#1587,#1588);
#1401=AXIS2_PLACEMENT_3D('',#1977,#1590,#1591);
#1402=AXIS2_PLACEMENT_3D('',#1987,#1596,#1597);
#1403=AXIS2_PLACEMENT_3D('',#1989,#1598,#1599);
#1404=AXIS2_PLACEMENT_3D('',#1991,#1600,#1601);
#1405=AXIS2_PLACEMENT_3D('',#1993,#1602,#1603);
#1406=AXIS2_PLACEMENT_3D('',#1995,#1604,#1605);
#1407=AXIS2_PLACEMENT_3D('',#1997,#1606,#1607);
#1408=AXIS2_PLACEMENT_3D('',#1998,#1608,#1609);
#1409=AXIS2_PLACEMENT_3D('',#2004,#1613,#1614);
#1410=AXIS2_PLACEMENT_3D('',#2008,#1617,#1618);
#1411=AXIS2_PLACEMENT_3D('',#2012,#1621,#1622);
#1412=AXIS2_PLACEMENT_3D('',#2014,#1624,#1625);
#1413=AXIS2_PLACEMENT_3D('',#2017,#1627,#1628);
#1414=AXIS2_PLACEMENT_3D('',#2018,#1629,#1630);
#1415=AXIS2_PLACEMENT_3D('',#2021,#1632,#1633);
#1416=AXIS2_PLACEMENT_3D('',#2022,#1634,#1635);
#1417=AXIS2_PLACEMENT_3D('',#2025,#1637,#1638);
#1418=AXIS2_PLACEMENT_3D('',#2026,#1639,#1640);
#1419=AXIS2_PLACEMENT_3D('',#2029,#1642,#1643);
#1420=AXIS2_PLACEMENT_3D('',#2030,#1644,#1645);
#1421=AXIS2_PLACEMENT_3D('',#2033,#1647,#1648);
#1422=AXIS2_PLACEMENT_3D('',#2034,#1649,#1650);
#1423=AXIS2_PLACEMENT_3D('',#2037,#1652,#1653);
#1424=AXIS2_PLACEMENT_3D('',#2038,#1654,#1655);
#1425=AXIS2_PLACEMENT_3D('',#2040,#1657,#1658);
#1426=AXIS2_PLACEMENT_3D('',#2042,#1660,#1661);
#1427=AXIS2_PLACEMENT_3D('',#2044,#1663,#1664);
#1428=AXIS2_PLACEMENT_3D('',#2046,#1666,#1667);
#1429=AXIS2_PLACEMENT_3D('',#2048,#1669,#1670);
#1430=AXIS2_PLACEMENT_3D('',#2049,#1671,#1672);
#1431=AXIS2_PLACEMENT_3D('',#2059,#1677,#1678);
#1432=AXIS2_PLACEMENT_3D('',#2061,#1679,#1680);
#1433=AXIS2_PLACEMENT_3D('',#2063,#1681,#1682);
#1434=AXIS2_PLACEMENT_3D('',#2064,#1683,#1684);
#1435=AXIS2_PLACEMENT_3D('',#2074,#1690,#1691);
#1436=AXIS2_PLACEMENT_3D('',#2078,#1694,#1695);
#1437=AXIS2_PLACEMENT_3D('',#2083,#1698,#1699);
#1438=AXIS2_PLACEMENT_3D('',#2085,#1700,#1701);
#1439=AXIS2_PLACEMENT_3D('',#2087,#1702,#1703);
#1440=AXIS2_PLACEMENT_3D('',#2088,#1704,#1705);
#1441=AXIS2_PLACEMENT_3D('',#2093,#1708,#1709);
#1442=AXIS2_PLACEMENT_3D('',#2095,#1710,#1711);
#1443=AXIS2_PLACEMENT_3D('',#2097,#1712,#1713);
#1444=AXIS2_PLACEMENT_3D('',#2099,#1714,#1715);
#1445=AXIS2_PLACEMENT_3D('',#2101,#1716,#1717);
#1446=AXIS2_PLACEMENT_3D('',#2103,#1718,#1719);
#1447=AXIS2_PLACEMENT_3D('',#2105,#1720,#1721);
#1448=AXIS2_PLACEMENT_3D('',#2107,#1722,#1723);
#1449=AXIS2_PLACEMENT_3D('',#2109,#1724,#1725);
#1450=AXIS2_PLACEMENT_3D('',#2110,#1726,#1727);
#1451=AXIS2_PLACEMENT_3D('',#2114,#1730,#1731);
#1452=AXIS2_PLACEMENT_3D('',#2117,#1733,#1734);
#1453=AXIS2_PLACEMENT_3D('',#2119,#1735,#1736);
#1454=AXIS2_PLACEMENT_3D('',#2121,#1737,#1738);
#1455=AXIS2_PLACEMENT_3D('',#2123,#1739,#1740);
#1456=AXIS2_PLACEMENT_3D('',#2125,#1741,#1742);
#1457=AXIS2_PLACEMENT_3D('',#2127,#1743,#1744);
#1458=AXIS2_PLACEMENT_3D('',#2129,#1745,#1746);
#1459=AXIS2_PLACEMENT_3D('',#2131,#1747,#1748);
#1460=AXIS2_PLACEMENT_3D('',#2133,#1749,#1750);
#1461=AXIS2_PLACEMENT_3D('',#2134,#1751,#1752);
#1462=AXIS2_PLACEMENT_3D('',#2136,#1754,#1755);
#1463=AXIS2_PLACEMENT_3D('',#2138,#1757,#1758);
#1464=AXIS2_PLACEMENT_3D('',#2140,#1760,#1761);
#1465=AXIS2_PLACEMENT_3D('',#2142,#1763,#1764);
#1466=AXIS2_PLACEMENT_3D('',#2144,#1766,#1767);
#1467=AXIS2_PLACEMENT_3D('',#2146,#1769,#1770);
#1468=AXIS2_PLACEMENT_3D('',#2148,#1772,#1773);
#1469=AXIS2_PLACEMENT_3D('',#2150,#1775,#1776);
#1470=AXIS2_PLACEMENT_3D('',#2152,#1778,#1779);
#1471=AXIS2_PLACEMENT_3D('',#2154,#1781,#1782);
#1472=AXIS2_PLACEMENT_3D('',#2156,#1784,#1785);
#1473=AXIS2_PLACEMENT_3D('',#2158,#1787,#1788);
#1474=AXIS2_PLACEMENT_3D('',#2159,#1789,#1790);
#1475=AXIS2_PLACEMENT_3D('',#2169,#1795,#1796);
#1476=AXIS2_PLACEMENT_3D('',#2171,#1797,#1798);
#1477=AXIS2_PLACEMENT_3D('',#2173,#1799,#1800);
#1478=AXIS2_PLACEMENT_3D('',#2174,#1801,#1802);
#1479=AXIS2_PLACEMENT_3D('',#2184,#1808,#1809);
#1480=AXIS2_PLACEMENT_3D('',#2188,#1812,#1813);
#1481=AXIS2_PLACEMENT_3D('',#2193,#1816,#1817);
#1482=AXIS2_PLACEMENT_3D('',#2195,#1818,#1819);
#1483=AXIS2_PLACEMENT_3D('',#2197,#1820,#1821);
#1484=AXIS2_PLACEMENT_3D('',#2198,#1822,#1823);
#1485=AXIS2_PLACEMENT_3D('',#2203,#1826,#1827);
#1486=AXIS2_PLACEMENT_3D('',#2205,#1828,#1829);
#1487=AXIS2_PLACEMENT_3D('',#2207,#1830,#1831);
#1488=AXIS2_PLACEMENT_3D('',#2209,#1832,#1833);
#1489=AXIS2_PLACEMENT_3D('',#2211,#1834,#1835);
#1490=AXIS2_PLACEMENT_3D('',#2213,#1836,#1837);
#1491=AXIS2_PLACEMENT_3D('',#2215,#1838,#1839);
#1492=AXIS2_PLACEMENT_3D('',#2217,#1840,#1841);
#1493=AXIS2_PLACEMENT_3D('',#2219,#1842,#1843);
#1494=AXIS2_PLACEMENT_3D('',#2220,#1844,#1845);
#1495=AXIS2_PLACEMENT_3D('',#2224,#1848,#1849);
#1496=AXIS2_PLACEMENT_3D('',#2227,#1851,#1852);
#1497=AXIS2_PLACEMENT_3D('',#2229,#1853,#1854);
#1498=AXIS2_PLACEMENT_3D('',#2231,#1855,#1856);
#1499=AXIS2_PLACEMENT_3D('',#2233,#1857,#1858);
#1500=AXIS2_PLACEMENT_3D('',#2235,#1859,#1860);
#1501=AXIS2_PLACEMENT_3D('',#2237,#1861,#1862);
#1502=AXIS2_PLACEMENT_3D('',#2239,#1863,#1864);
#1503=AXIS2_PLACEMENT_3D('',#2241,#1865,#1866);
#1504=AXIS2_PLACEMENT_3D('',#2243,#1867,#1868);
#1505=AXIS2_PLACEMENT_3D('',#2244,#1869,#1870);
#1506=AXIS2_PLACEMENT_3D('',#2245,#1871,#1872);
#1507=AXIS2_PLACEMENT_3D('',#2247,#1874,#1875);
#1508=AXIS2_PLACEMENT_3D('',#2249,#1877,#1878);
#1509=AXIS2_PLACEMENT_3D('',#2251,#1880,#1881);
#1510=AXIS2_PLACEMENT_3D('',#2253,#1883,#1884);
#1511=AXIS2_PLACEMENT_3D('',#2255,#1886,#1887);
#1512=AXIS2_PLACEMENT_3D('',#2257,#1889,#1890);
#1513=AXIS2_PLACEMENT_3D('',#2259,#1892,#1893);
#1514=AXIS2_PLACEMENT_3D('',#2261,#1895,#1896);
#1515=AXIS2_PLACEMENT_3D('',#2263,#1898,#1899);
#1516=AXIS2_PLACEMENT_3D('',#2265,#1901,#1902);
#1517=AXIS2_PLACEMENT_3D('',#2267,#1904,#1905);
#1518=DIRECTION('axis',(0.,0.,1.));
#1519=DIRECTION('refdir',(1.,0.,0.));
#1520=DIRECTION('center_axis',(0.,-1.,0.));
#1521=DIRECTION('ref_axis',(0.707106781186549,0.,0.707106781186546));
#1522=DIRECTION('center_axis',(0.,1.,0.));
#1523=DIRECTION('ref_axis',(0.707106781186549,0.,0.707106781186546));
#1524=DIRECTION('',(0.,1.,0.));
#1525=DIRECTION('center_axis',(0.,-1.,0.));
#1526=DIRECTION('ref_axis',(0.707106781186549,0.,0.707106781186546));
#1527=DIRECTION('',(0.,-1.,0.));
#1528=DIRECTION('center_axis',(0.,-1.,0.));
#1529=DIRECTION('ref_axis',(1.,0.,0.));
#1530=DIRECTION('',(-1.,0.,0.));
#1531=DIRECTION('center_axis',(0.,1.,0.));
#1532=DIRECTION('ref_axis',(-0.707106781186549,0.,0.707106781186546));
#1533=DIRECTION('',(0.,0.,1.));
#1534=DIRECTION('',(-1.,0.,0.));
#1535=DIRECTION('',(0.,0.,1.));
#1536=DIRECTION('center_axis',(0.,1.,0.));
#1537=DIRECTION('ref_axis',(1.,0.,0.));
#1538=DIRECTION('center_axis',(0.,1.,0.));
#1539=DIRECTION('ref_axis',(1.,0.,0.));
#1540=DIRECTION('center_axis',(0.,1.,0.));
#1541=DIRECTION('ref_axis',(1.,0.,0.));
#1542=DIRECTION('center_axis',(0.,1.,0.));
#1543=DIRECTION('ref_axis',(1.,0.,0.));
#1544=DIRECTION('center_axis',(0.,1.,0.));
#1545=DIRECTION('ref_axis',(1.,0.,0.));
#1546=DIRECTION('center_axis',(0.,1.,0.));
#1547=DIRECTION('ref_axis',(1.,0.,0.));
#1548=DIRECTION('center_axis',(0.,1.,0.));
#1549=DIRECTION('ref_axis',(1.,0.,0.));
#1550=DIRECTION('center_axis',(0.,0.,1.));
#1551=DIRECTION('ref_axis',(1.,0.,0.));
#1552=DIRECTION('',(1.,0.,0.));
#1553=DIRECTION('',(0.,1.,0.));
#1554=DIRECTION('center_axis',(0.,1.,0.));
#1555=DIRECTION('ref_axis',(-0.707106781186549,0.,0.707106781186546));
#1556=DIRECTION('center_axis',(0.,-1.,0.));
#1557=DIRECTION('ref_axis',(-0.707106781186549,0.,0.707106781186546));
#1558=DIRECTION('',(0.,-1.,0.));
#1559=DIRECTION('center_axis',(0.,1.,0.));
#1560=DIRECTION('ref_axis',(-1.,0.,0.));
#1561=DIRECTION('',(0.,0.,1.));
#1562=DIRECTION('',(1.,0.,0.));
#1563=DIRECTION('',(0.,0.,1.));
#1564=DIRECTION('center_axis',(0.,-1.,0.));
#1565=DIRECTION('ref_axis',(1.,0.,0.));
#1566=DIRECTION('center_axis',(0.,-1.,0.));
#1567=DIRECTION('ref_axis',(1.,0.,0.));
#1568=DIRECTION('center_axis',(0.,-1.,0.));
#1569=DIRECTION('ref_axis',(1.,0.,0.));
#1570=DIRECTION('center_axis',(0.,-1.,0.));
#1571=DIRECTION('ref_axis',(1.,0.,0.));
#1572=DIRECTION('center_axis',(0.,-1.,0.));
#1573=DIRECTION('ref_axis',(1.,0.,0.));
#1574=DIRECTION('center_axis',(0.,-1.,0.));
#1575=DIRECTION('ref_axis',(1.,0.,0.));
#1576=DIRECTION('center_axis',(0.,-1.,0.));
#1577=DIRECTION('ref_axis',(1.,0.,0.));
#1578=DIRECTION('center_axis',(1.,0.,0.));
#1579=DIRECTION('ref_axis',(0.,0.,-1.));
#1580=DIRECTION('',(0.,-1.,0.));
#1581=DIRECTION('center_axis',(-1.,0.,0.));
#1582=DIRECTION('ref_axis',(0.,0.,1.));
#1583=DIRECTION('',(0.,1.,0.));
#1584=DIRECTION('center_axis',(0.,1.,0.));
#1585=DIRECTION('ref_axis',(1.,0.,0.));
#1586=DIRECTION('',(0.,1.,0.));
#1587=DIRECTION('center_axis',(0.,1.,0.));
#1588=DIRECTION('ref_axis',(1.,0.,0.));
#1589=DIRECTION('',(0.,1.,0.));
#1590=DIRECTION('center_axis',(0.,0.,1.));
#1591=DIRECTION('ref_axis',(1.,0.,0.));
#1592=DIRECTION('',(0.,-1.,0.));
#1593=DIRECTION('',(-1.,0.,0.));
#1594=DIRECTION('',(0.,1.,0.));
#1595=DIRECTION('',(1.,0.,0.));
#1596=DIRECTION('center_axis',(0.,0.,-1.));
#1597=DIRECTION('ref_axis',(-1.,0.,0.));
#1598=DIRECTION('center_axis',(0.,0.,-1.));
#1599=DIRECTION('ref_axis',(-1.,0.,0.));
#1600=DIRECTION('center_axis',(0.,0.,-1.));
#1601=DIRECTION('ref_axis',(-1.,0.,0.));
#1602=DIRECTION('center_axis',(0.,0.,-1.));
#1603=DIRECTION('ref_axis',(-1.,0.,0.));
#1604=DIRECTION('center_axis',(0.,0.,-1.));
#1605=DIRECTION('ref_axis',(-1.,0.,0.));
#1606=DIRECTION('center_axis',(0.,0.,-1.));
#1607=DIRECTION('ref_axis',(-1.,0.,0.));
#1608=DIRECTION('center_axis',(-1.,0.,0.));
#1609=DIRECTION('ref_axis',(0.,0.,1.));
#1610=DIRECTION('',(0.,0.,1.));
#1611=DIRECTION('',(0.,1.,0.));
#1612=DIRECTION('',(0.,0.,1.));
#1613=DIRECTION('center_axis',(0.,1.,0.));
#1614=DIRECTION('ref_axis',(-1.,0.,0.));
#1615=DIRECTION('',(0.,0.,1.));
#1616=DIRECTION('',(-1.,0.,0.));
#1617=DIRECTION('center_axis',(1.,0.,0.));
#1618=DIRECTION('ref_axis',(0.,0.,-1.));
#1619=DIRECTION('',(0.,0.,-1.));
#1620=DIRECTION('',(0.,-1.,0.));
#1621=DIRECTION('center_axis',(0.,-1.,0.));
#1622=DIRECTION('ref_axis',(1.,0.,0.));
#1623=DIRECTION('',(1.,0.,0.));
#1624=DIRECTION('center_axis',(0.,0.,1.));
#1625=DIRECTION('ref_axis',(-1.,0.,0.));
#1626=DIRECTION('',(0.,0.,1.));
#1627=DIRECTION('center_axis',(0.,0.,-1.));
#1628=DIRECTION('ref_axis',(-1.,0.,0.));
#1629=DIRECTION('center_axis',(0.,0.,1.));
#1630=DIRECTION('ref_axis',(-1.,0.,0.));
#1631=DIRECTION('',(0.,0.,1.));
#1632=DIRECTION('center_axis',(0.,0.,-1.));
#1633=DIRECTION('ref_axis',(-1.,0.,0.));
#1634=DIRECTION('center_axis',(0.,0.,1.));
#1635=DIRECTION('ref_axis',(-1.,0.,0.));
#1636=DIRECTION('',(0.,0.,1.));
#1637=DIRECTION('center_axis',(0.,0.,-1.));
#1638=DIRECTION('ref_axis',(-1.,0.,0.));
#1639=DIRECTION('center_axis',(0.,0.,1.));
#1640=DIRECTION('ref_axis',(-1.,0.,0.));
#1641=DIRECTION('',(0.,0.,1.));
#1642=DIRECTION('center_axis',(0.,0.,-1.));
#1643=DIRECTION('ref_axis',(-1.,0.,0.));
#1644=DIRECTION('center_axis',(0.,0.,1.));
#1645=DIRECTION('ref_axis',(-1.,0.,0.));
#1646=DIRECTION('',(0.,0.,1.));
#1647=DIRECTION('center_axis',(0.,0.,-1.));
#1648=DIRECTION('ref_axis',(-1.,0.,0.));
#1649=DIRECTION('center_axis',(0.,0.,1.));
#1650=DIRECTION('ref_axis',(-1.,0.,0.));
#1651=DIRECTION('',(0.,0.,1.));
#1652=DIRECTION('center_axis',(0.,0.,-1.));
#1653=DIRECTION('ref_axis',(-1.,0.,0.));
#1654=DIRECTION('center_axis',(0.,1.,0.));
#1655=DIRECTION('ref_axis',(1.,0.,0.));
#1656=DIRECTION('',(0.,1.,0.));
#1657=DIRECTION('center_axis',(0.,1.,0.));
#1658=DIRECTION('ref_axis',(1.,0.,0.));
#1659=DIRECTION('',(0.,1.,0.));
#1660=DIRECTION('center_axis',(0.,1.,0.));
#1661=DIRECTION('ref_axis',(1.,0.,0.));
#1662=DIRECTION('',(0.,1.,0.));
#1663=DIRECTION('center_axis',(0.,1.,0.));
#1664=DIRECTION('ref_axis',(1.,0.,0.));
#1665=DIRECTION('',(0.,1.,0.));
#1666=DIRECTION('center_axis',(0.,1.,0.));
#1667=DIRECTION('ref_axis',(1.,0.,0.));
#1668=DIRECTION('',(0.,1.,0.));
#1669=DIRECTION('center_axis',(0.,0.,1.));
#1670=DIRECTION('ref_axis',(1.,0.,0.));
#1671=DIRECTION('center_axis',(0.,0.,1.));
#1672=DIRECTION('ref_axis',(1.,0.,0.));
#1673=DIRECTION('',(0.,1.,0.));
#1674=DIRECTION('',(-1.,0.,0.));
#1675=DIRECTION('',(0.,-1.,0.));
#1676=DIRECTION('',(1.,0.,0.));
#1677=DIRECTION('center_axis',(0.,0.,1.));
#1678=DIRECTION('ref_axis',(1.,0.,0.));
#1679=DIRECTION('center_axis',(0.,0.,1.));
#1680=DIRECTION('ref_axis',(1.,0.,0.));
#1681=DIRECTION('center_axis',(0.,0.,1.));
#1682=DIRECTION('ref_axis',(1.,0.,0.));
#1683=DIRECTION('center_axis',(0.,1.,0.));
#1684=DIRECTION('ref_axis',(-1.,0.,0.));
#1685=DIRECTION('',(0.,0.,-1.));
#1686=DIRECTION('',(1.,0.,0.));
#1687=DIRECTION('',(0.,0.,1.));
#1688=DIRECTION('',(1.,0.,0.));
#1689=DIRECTION('',(0.,0.,1.));
#1690=DIRECTION('center_axis',(1.,0.,0.));
#1691=DIRECTION('ref_axis',(0.,0.,-1.));
#1692=DIRECTION('',(0.,0.,-1.));
#1693=DIRECTION('',(0.,-1.,0.));
#1694=DIRECTION('center_axis',(0.,0.,-1.));
#1695=DIRECTION('ref_axis',(0.,1.,0.));
#1696=DIRECTION('',(0.,-1.,0.));
#1697=DIRECTION('',(-1.,0.,0.));
#1698=DIRECTION('center_axis',(0.,0.,1.));
#1699=DIRECTION('ref_axis',(1.,0.,0.));
#1700=DIRECTION('center_axis',(0.,0.,1.));
#1701=DIRECTION('ref_axis',(1.,0.,0.));
#1702=DIRECTION('center_axis',(0.,0.,1.));
#1703=DIRECTION('ref_axis',(1.,0.,0.));
#1704=DIRECTION('center_axis',(1.,0.,0.));
#1705=DIRECTION('ref_axis',(0.,1.,0.));
#1706=DIRECTION('',(0.,0.,1.));
#1707=DIRECTION('',(0.,-1.,0.));
#1708=DIRECTION('center_axis',(-1.,0.,0.));
#1709=DIRECTION('ref_axis',(0.,-1.,0.));
#1710=DIRECTION('center_axis',(-1.,0.,0.));
#1711=DIRECTION('ref_axis',(0.,-1.,0.));
#1712=DIRECTION('center_axis',(-1.,0.,0.));
#1713=DIRECTION('ref_axis',(0.,-1.,0.));
#1714=DIRECTION('center_axis',(-1.,0.,0.));
#1715=DIRECTION('ref_axis',(0.,-1.,0.));
#1716=DIRECTION('center_axis',(-1.,0.,0.));
#1717=DIRECTION('ref_axis',(0.,-1.,0.));
#1718=DIRECTION('center_axis',(-1.,0.,0.));
#1719=DIRECTION('ref_axis',(0.,-1.,0.));
#1720=DIRECTION('center_axis',(-1.,0.,0.));
#1721=DIRECTION('ref_axis',(0.,-1.,0.));
#1722=DIRECTION('center_axis',(-1.,0.,0.));
#1723=DIRECTION('ref_axis',(0.,-1.,0.));
#1724=DIRECTION('center_axis',(-1.,0.,0.));
#1725=DIRECTION('ref_axis',(0.,-1.,0.));
#1726=DIRECTION('center_axis',(0.,-1.,0.));
#1727=DIRECTION('ref_axis',(1.,0.,0.));
#1728=DIRECTION('',(0.,0.,-1.));
#1729=DIRECTION('',(-1.,0.,0.));
#1730=DIRECTION('center_axis',(1.,0.,0.));
#1731=DIRECTION('ref_axis',(0.,0.,-1.));
#1732=DIRECTION('',(0.,1.,0.));
#1733=DIRECTION('center_axis',(-1.,0.,0.));
#1734=DIRECTION('ref_axis',(0.,-1.,0.));
#1735=DIRECTION('center_axis',(-1.,0.,0.));
#1736=DIRECTION('ref_axis',(0.,-1.,0.));
#1737=DIRECTION('center_axis',(-1.,0.,0.));
#1738=DIRECTION('ref_axis',(0.,-1.,0.));
#1739=DIRECTION('center_axis',(-1.,0.,0.));
#1740=DIRECTION('ref_axis',(0.,-1.,0.));
#1741=DIRECTION('center_axis',(-1.,0.,0.));
#1742=DIRECTION('ref_axis',(0.,-1.,0.));
#1743=DIRECTION('center_axis',(-1.,0.,0.));
#1744=DIRECTION('ref_axis',(0.,-1.,0.));
#1745=DIRECTION('center_axis',(-1.,0.,0.));
#1746=DIRECTION('ref_axis',(0.,-1.,0.));
#1747=DIRECTION('center_axis',(-1.,0.,0.));
#1748=DIRECTION('ref_axis',(0.,-1.,0.));
#1749=DIRECTION('center_axis',(-1.,0.,0.));
#1750=DIRECTION('ref_axis',(0.,-1.,0.));
#1751=DIRECTION('center_axis',(0.,0.,-1.));
#1752=DIRECTION('ref_axis',(1.,0.,0.));
#1753=DIRECTION('',(0.,0.,-1.));
#1754=DIRECTION('center_axis',(0.,0.,-1.));
#1755=DIRECTION('ref_axis',(1.,0.,0.));
#1756=DIRECTION('',(0.,0.,-1.));
#1757=DIRECTION('center_axis',(0.,0.,-1.));
#1758=DIRECTION('ref_axis',(1.,0.,0.));
#1759=DIRECTION('',(0.,0.,-1.));
#1760=DIRECTION('center_axis',(1.,0.,0.));
#1761=DIRECTION('ref_axis',(0.,-1.,0.));
#1762=DIRECTION('',(1.,0.,0.));
#1763=DIRECTION('center_axis',(1.,0.,0.));
#1764=DIRECTION('ref_axis',(0.,-1.,0.));
#1765=DIRECTION('',(1.,0.,0.));
#1766=DIRECTION('center_axis',(1.,0.,0.));
#1767=DIRECTION('ref_axis',(0.,-1.,0.));
#1768=DIRECTION('',(1.,0.,0.));
#1769=DIRECTION('center_axis',(1.,0.,0.));
#1770=DIRECTION('ref_axis',(0.,-1.,0.));
#1771=DIRECTION('',(1.,0.,0.));
#1772=DIRECTION('center_axis',(1.,0.,0.));
#1773=DIRECTION('ref_axis',(0.,-1.,0.));
#1774=DIRECTION('',(1.,0.,0.));
#1775=DIRECTION('center_axis',(1.,0.,0.));
#1776=DIRECTION('ref_axis',(0.,-1.,0.));
#1777=DIRECTION('',(1.,0.,0.));
#1778=DIRECTION('center_axis',(1.,0.,0.));
#1779=DIRECTION('ref_axis',(0.,-1.,0.));
#1780=DIRECTION('',(1.,0.,0.));
#1781=DIRECTION('center_axis',(1.,0.,0.));
#1782=DIRECTION('ref_axis',(0.,-1.,0.));
#1783=DIRECTION('',(1.,0.,0.));
#1784=DIRECTION('center_axis',(1.,0.,0.));
#1785=DIRECTION('ref_axis',(0.,-1.,0.));
#1786=DIRECTION('',(1.,0.,0.));
#1787=DIRECTION('center_axis',(0.,0.,1.));
#1788=DIRECTION('ref_axis',(-1.,0.,0.));
#1789=DIRECTION('center_axis',(0.,0.,1.));
#1790=DIRECTION('ref_axis',(1.,0.,0.));
#1791=DIRECTION('',(0.,-1.,0.));
#1792=DIRECTION('',(1.,0.,0.));
#1793=DIRECTION('',(0.,1.,0.));
#1794=DIRECTION('',(-1.,0.,0.));
#1795=DIRECTION('center_axis',(0.,0.,1.));
#1796=DIRECTION('ref_axis',(1.,0.,0.));
#1797=DIRECTION('center_axis',(0.,0.,1.));
#1798=DIRECTION('ref_axis',(1.,0.,0.));
#1799=DIRECTION('center_axis',(0.,0.,1.));
#1800=DIRECTION('ref_axis',(1.,0.,0.));
#1801=DIRECTION('center_axis',(0.,-1.,0.));
#1802=DIRECTION('ref_axis',(1.,0.,0.));
#1803=DIRECTION('',(0.,0.,-1.));
#1804=DIRECTION('',(-1.,0.,0.));
#1805=DIRECTION('',(0.,0.,1.));
#1806=DIRECTION('',(1.,0.,0.));
#1807=DIRECTION('',(0.,0.,1.));
#1808=DIRECTION('center_axis',(-1.,0.,0.));
#1809=DIRECTION('ref_axis',(0.,0.,1.));
#1810=DIRECTION('',(0.,0.,-1.));
#1811=DIRECTION('',(0.,1.,0.));
#1812=DIRECTION('center_axis',(0.,0.,-1.));
#1813=DIRECTION('ref_axis',(0.,-1.,0.));
#1814=DIRECTION('',(0.,1.,0.));
#1815=DIRECTION('',(1.,0.,0.));
#1816=DIRECTION('center_axis',(0.,0.,1.));
#1817=DIRECTION('ref_axis',(1.,0.,0.));
#1818=DIRECTION('center_axis',(0.,0.,1.));
#1819=DIRECTION('ref_axis',(1.,0.,0.));
#1820=DIRECTION('center_axis',(0.,0.,1.));
#1821=DIRECTION('ref_axis',(1.,0.,0.));
#1822=DIRECTION('center_axis',(-1.,0.,0.));
#1823=DIRECTION('ref_axis',(0.,-1.,0.));
#1824=DIRECTION('',(0.,0.,1.));
#1825=DIRECTION('',(0.,-1.,0.));
#1826=DIRECTION('center_axis',(1.,0.,0.));
#1827=DIRECTION('ref_axis',(0.,1.,0.));
#1828=DIRECTION('center_axis',(1.,0.,0.));
#1829=DIRECTION('ref_axis',(0.,1.,0.));
#1830=DIRECTION('center_axis',(1.,0.,0.));
#1831=DIRECTION('ref_axis',(0.,1.,0.));
#1832=DIRECTION('center_axis',(1.,0.,0.));
#1833=DIRECTION('ref_axis',(0.,1.,0.));
#1834=DIRECTION('center_axis',(1.,0.,0.));
#1835=DIRECTION('ref_axis',(0.,1.,0.));
#1836=DIRECTION('center_axis',(1.,0.,0.));
#1837=DIRECTION('ref_axis',(0.,1.,0.));
#1838=DIRECTION('center_axis',(1.,0.,0.));
#1839=DIRECTION('ref_axis',(0.,1.,0.));
#1840=DIRECTION('center_axis',(1.,0.,0.));
#1841=DIRECTION('ref_axis',(0.,1.,0.));
#1842=DIRECTION('center_axis',(1.,0.,0.));
#1843=DIRECTION('ref_axis',(0.,1.,0.));
#1844=DIRECTION('center_axis',(0.,1.,0.));
#1845=DIRECTION('ref_axis',(-1.,0.,0.));
#1846=DIRECTION('',(0.,0.,-1.));
#1847=DIRECTION('',(-1.,0.,0.));
#1848=DIRECTION('center_axis',(1.,0.,0.));
#1849=DIRECTION('ref_axis',(0.,1.,0.));
#1850=DIRECTION('',(0.,-1.,0.));
#1851=DIRECTION('center_axis',(1.,0.,0.));
#1852=DIRECTION('ref_axis',(0.,1.,0.));
#1853=DIRECTION('center_axis',(1.,0.,0.));
#1854=DIRECTION('ref_axis',(0.,1.,0.));
#1855=DIRECTION('center_axis',(1.,0.,0.));
#1856=DIRECTION('ref_axis',(0.,1.,0.));
#1857=DIRECTION('center_axis',(1.,0.,0.));
#1858=DIRECTION('ref_axis',(0.,1.,0.));
#1859=DIRECTION('center_axis',(1.,0.,0.));
#1860=DIRECTION('ref_axis',(0.,1.,0.));
#1861=DIRECTION('center_axis',(1.,0.,0.));
#1862=DIRECTION('ref_axis',(0.,1.,0.));
#1863=DIRECTION('center_axis',(1.,0.,0.));
#1864=DIRECTION('ref_axis',(0.,1.,0.));
#1865=DIRECTION('center_axis',(1.,0.,0.));
#1866=DIRECTION('ref_axis',(0.,1.,0.));
#1867=DIRECTION('center_axis',(1.,0.,0.));
#1868=DIRECTION('ref_axis',(0.,1.,0.));
#1869=DIRECTION('center_axis',(0.,0.,1.));
#1870=DIRECTION('ref_axis',(-1.,0.,0.));
#1871=DIRECTION('center_axis',(0.,0.,-1.));
#1872=DIRECTION('ref_axis',(1.,0.,0.));
#1873=DIRECTION('',(0.,0.,-1.));
#1874=DIRECTION('center_axis',(0.,0.,-1.));
#1875=DIRECTION('ref_axis',(1.,0.,0.));
#1876=DIRECTION('',(0.,0.,-1.));
#1877=DIRECTION('center_axis',(0.,0.,-1.));
#1878=DIRECTION('ref_axis',(1.,0.,0.));
#1879=DIRECTION('',(0.,0.,-1.));
#1880=DIRECTION('center_axis',(-1.,0.,0.));
#1881=DIRECTION('ref_axis',(0.,1.,0.));
#1882=DIRECTION('',(-1.,0.,0.));
#1883=DIRECTION('center_axis',(-1.,0.,0.));
#1884=DIRECTION('ref_axis',(0.,1.,0.));
#1885=DIRECTION('',(-1.,0.,0.));
#1886=DIRECTION('center_axis',(-1.,0.,0.));
#1887=DIRECTION('ref_axis',(0.,1.,0.));
#1888=DIRECTION('',(-1.,0.,0.));
#1889=DIRECTION('center_axis',(-1.,0.,0.));
#1890=DIRECTION('ref_axis',(0.,1.,0.));
#1891=DIRECTION('',(-1.,0.,0.));
#1892=DIRECTION('center_axis',(-1.,0.,0.));
#1893=DIRECTION('ref_axis',(0.,1.,0.));
#1894=DIRECTION('',(-1.,0.,0.));
#1895=DIRECTION('center_axis',(-1.,0.,0.));
#1896=DIRECTION('ref_axis',(0.,1.,0.));
#1897=DIRECTION('',(-1.,0.,0.));
#1898=DIRECTION('center_axis',(-1.,0.,0.));
#1899=DIRECTION('ref_axis',(0.,1.,0.));
#1900=DIRECTION('',(-1.,0.,0.));
#1901=DIRECTION('center_axis',(-1.,0.,0.));
#1902=DIRECTION('ref_axis',(0.,1.,0.));
#1903=DIRECTION('',(-1.,0.,0.));
#1904=DIRECTION('center_axis',(-1.,0.,0.));
#1905=DIRECTION('ref_axis',(0.,1.,0.));
#1906=DIRECTION('',(-1.,0.,0.));
#1907=CARTESIAN_POINT('',(0.,0.,0.));
#1908=CARTESIAN_POINT('Origin',(20.5,-13.,38.));
#1909=CARTESIAN_POINT('',(20.5,-13.,41.));
#1910=CARTESIAN_POINT('',(23.5,-13.,38.));
#1911=CARTESIAN_POINT('Origin',(20.5,-13.,38.));
#1912=CARTESIAN_POINT('',(23.5,13.,38.));
#1913=CARTESIAN_POINT('',(23.5,-13.,38.));
#1914=CARTESIAN_POINT('',(20.5,13.,41.));
#1915=CARTESIAN_POINT('Origin',(20.5,13.,38.));
#1916=CARTESIAN_POINT('',(20.5,-13.,41.));
#1917=CARTESIAN_POINT('Origin',(-20.,-13.,8.));
#1918=CARTESIAN_POINT('',(-20.5,-13.,41.));
#1919=CARTESIAN_POINT('',(22.75,-13.,41.));
#1920=CARTESIAN_POINT('',(-23.5,-13.,38.));
#1921=CARTESIAN_POINT('Origin',(-20.5,-13.,38.));
#1922=CARTESIAN_POINT('',(-23.5,-13.,8.));
#1923=CARTESIAN_POINT('',(-23.5,-13.,8.));
#1924=CARTESIAN_POINT('',(23.5,-13.,8.));
#1925=CARTESIAN_POINT('',(11.25,-13.,8.));
#1926=CARTESIAN_POINT('',(23.5,-13.,38.));
#1927=CARTESIAN_POINT('',(-21.38,-13.,28.));
#1928=CARTESIAN_POINT('Origin',(-13.86,-13.,28.));
#1929=CARTESIAN_POINT('',(6.33999999999999,-13.,28.));
#1930=CARTESIAN_POINT('Origin',(13.86,-13.,28.));
#1931=CARTESIAN_POINT('',(-9.492,-13.,20.));
#1932=CARTESIAN_POINT('Origin',(-8.042,-13.,20.));
#1933=CARTESIAN_POINT('',(-1.45,-13.,28.042));
#1934=CARTESIAN_POINT('Origin',(0.,-13.,28.042));
#1935=CARTESIAN_POINT('',(-1.45,-13.,11.958));
#1936=CARTESIAN_POINT('Origin',(0.,-13.,11.958));
#1937=CARTESIAN_POINT('',(-5.15,-13.,20.));
#1938=CARTESIAN_POINT('Origin',(0.,-13.,20.));
#1939=CARTESIAN_POINT('',(6.592,-13.,20.));
#1940=CARTESIAN_POINT('Origin',(8.042,-13.,20.));
#1941=CARTESIAN_POINT('Origin',(-22.5,-13.,41.));
#1942=CARTESIAN_POINT('',(-20.5,13.,41.));
#1943=CARTESIAN_POINT('',(-22.75,13.,41.));
#1944=CARTESIAN_POINT('',(-20.5,-13.,41.));
#1945=CARTESIAN_POINT('Origin',(-20.5,-13.,38.));
#1946=CARTESIAN_POINT('',(-23.5,13.,38.));
#1947=CARTESIAN_POINT('Origin',(-20.5,13.,38.));
#1948=CARTESIAN_POINT('',(-23.5,-13.,38.));
#1949=CARTESIAN_POINT('Origin',(20.,13.,8.));
#1950=CARTESIAN_POINT('',(23.5,13.,8.));
#1951=CARTESIAN_POINT('',(23.5,13.,32.75));
#1952=CARTESIAN_POINT('',(-23.5,13.,8.));
#1953=CARTESIAN_POINT('',(11.25,13.,8.));
#1954=CARTESIAN_POINT('',(-23.5,13.,38.));
#1955=CARTESIAN_POINT('',(-21.38,13.,28.));
#1956=CARTESIAN_POINT('Origin',(-13.86,13.,28.));
#1957=CARTESIAN_POINT('',(6.33999999999999,13.,28.));
#1958=CARTESIAN_POINT('Origin',(13.86,13.,28.));
#1959=CARTESIAN_POINT('',(6.592,13.,20.));
#1960=CARTESIAN_POINT('Origin',(8.042,13.,20.));
#1961=CARTESIAN_POINT('',(-5.15,13.,20.));
#1962=CARTESIAN_POINT('Origin',(0.,13.,20.));
#1963=CARTESIAN_POINT('',(-1.45,13.,11.958));
#1964=CARTESIAN_POINT('Origin',(0.,13.,11.958));
#1965=CARTESIAN_POINT('',(-1.45,13.,28.042));
#1966=CARTESIAN_POINT('Origin',(0.,13.,28.042));
#1967=CARTESIAN_POINT('',(-9.492,13.,20.));
#1968=CARTESIAN_POINT('Origin',(-8.042,13.,20.));
#1969=CARTESIAN_POINT('Origin',(23.5,-13.,41.));
#1970=CARTESIAN_POINT('',(23.5,-6.5,8.));
#1971=CARTESIAN_POINT('Origin',(-23.5,-13.,8.));
#1972=CARTESIAN_POINT('',(-23.5,-6.5,8.));
#1973=CARTESIAN_POINT('Origin',(-13.86,-13.,28.));
#1974=CARTESIAN_POINT('',(-21.38,-13.,28.));
#1975=CARTESIAN_POINT('Origin',(13.86,-13.,28.));
#1976=CARTESIAN_POINT('',(6.33999999999999,-13.,28.));
#1977=CARTESIAN_POINT('Origin',(0.,0.,0.01));
#1978=CARTESIAN_POINT('',(-41.99,20.,0.01));
#1979=CARTESIAN_POINT('',(-41.99,-20.,0.01));
#1980=CARTESIAN_POINT('',(-41.99,10.,0.01));
#1981=CARTESIAN_POINT('',(42.,20.,0.01));
#1982=CARTESIAN_POINT('',(23.5,20.,0.01));
#1983=CARTESIAN_POINT('',(42.,-20.,0.01));
#1984=CARTESIAN_POINT('',(42.,-10.,0.01));
#1985=CARTESIAN_POINT('',(-23.5,-20.,0.01));
#1986=CARTESIAN_POINT('',(30.015,10.,0.01));
#1987=CARTESIAN_POINT('Origin',(27.5,10.,0.01));
#1988=CARTESIAN_POINT('',(30.015,-10.,0.01));
#1989=CARTESIAN_POINT('Origin',(27.5,-10.,0.01));
#1990=CARTESIAN_POINT('',(-24.985,-3.07998669985559E-16,0.01));
#1991=CARTESIAN_POINT('Origin',(-27.5,0.,0.01));
#1992=CARTESIAN_POINT('',(-24.985,-10.,0.01));
#1993=CARTESIAN_POINT('Origin',(-27.5,-10.,0.01));
#1994=CARTESIAN_POINT('',(-24.985,10.,0.01));
#1995=CARTESIAN_POINT('Origin',(-27.5,10.,0.01));
#1996=CARTESIAN_POINT('',(30.015,-3.07998669985559E-16,0.01));
#1997=CARTESIAN_POINT('Origin',(27.5,0.,0.01));
#1998=CARTESIAN_POINT('Origin',(42.,-20.,0.));
#1999=CARTESIAN_POINT('',(42.,20.,8.));
#2000=CARTESIAN_POINT('',(42.,20.,0.));
#2001=CARTESIAN_POINT('',(42.,-20.,8.));
#2002=CARTESIAN_POINT('',(42.,-10.,8.));
#2003=CARTESIAN_POINT('',(42.,-20.,0.));
#2004=CARTESIAN_POINT('Origin',(47.,20.,0.));
#2005=CARTESIAN_POINT('',(-41.99,20.,8.));
#2006=CARTESIAN_POINT('',(-41.99,20.,0.));
#2007=CARTESIAN_POINT('',(47.,20.,8.));
#2008=CARTESIAN_POINT('Origin',(-41.99,20.,0.));
#2009=CARTESIAN_POINT('',(-41.99,-20.,8.));
#2010=CARTESIAN_POINT('',(-41.99,-20.,0.));
#2011=CARTESIAN_POINT('',(-41.99,10.,8.));
#2012=CARTESIAN_POINT('Origin',(-47.,-20.,0.));
#2013=CARTESIAN_POINT('',(-47.,-20.,8.));
#2014=CARTESIAN_POINT('Origin',(27.5,0.,5.));
#2015=CARTESIAN_POINT('',(30.015,-3.07998669985559E-16,8.));
#2016=CARTESIAN_POINT('',(30.015,3.07998669985559E-16,5.));
#2017=CARTESIAN_POINT('Origin',(27.5,0.,8.));
#2018=CARTESIAN_POINT('Origin',(-27.5,10.,5.));
#2019=CARTESIAN_POINT('',(-24.985,10.,8.));
#2020=CARTESIAN_POINT('',(-24.985,10.,5.));
#2021=CARTESIAN_POINT('Origin',(-27.5,10.,8.));
#2022=CARTESIAN_POINT('Origin',(-27.5,-10.,5.));
#2023=CARTESIAN_POINT('',(-24.985,-10.,8.));
#2024=CARTESIAN_POINT('',(-24.985,-10.,5.));
#2025=CARTESIAN_POINT('Origin',(-27.5,-10.,8.));
#2026=CARTESIAN_POINT('Origin',(-27.5,0.,5.));
#2027=CARTESIAN_POINT('',(-24.985,-3.07998669985559E-16,8.));
#2028=CARTESIAN_POINT('',(-24.985,3.07998669985559E-16,5.));
#2029=CARTESIAN_POINT('Origin',(-27.5,0.,8.));
#2030=CARTESIAN_POINT('Origin',(27.5,-10.,5.));
#2031=CARTESIAN_POINT('',(30.015,-10.,8.));
#2032=CARTESIAN_POINT('',(30.015,-10.,5.));
#2033=CARTESIAN_POINT('Origin',(27.5,-10.,8.));
#2034=CARTESIAN_POINT('Origin',(27.5,10.,5.));
#2035=CARTESIAN_POINT('',(30.015,10.,8.));
#2036=CARTESIAN_POINT('',(30.015,10.,5.));
#2037=CARTESIAN_POINT('Origin',(27.5,10.,8.));
#2038=CARTESIAN_POINT('Origin',(8.042,-13.,20.));
#2039=CARTESIAN_POINT('',(6.592,-13.,20.));
#2040=CARTESIAN_POINT('Origin',(0.,-13.,20.));
#2041=CARTESIAN_POINT('',(-5.15,-13.,20.));
#2042=CARTESIAN_POINT('Origin',(0.,-13.,11.958));
#2043=CARTESIAN_POINT('',(-1.45,-13.,11.958));
#2044=CARTESIAN_POINT('Origin',(0.,-13.,28.042));
#2045=CARTESIAN_POINT('',(-1.45,-13.,28.042));
#2046=CARTESIAN_POINT('Origin',(-8.042,-13.,20.));
#2047=CARTESIAN_POINT('',(-9.492,-13.,20.));
#2048=CARTESIAN_POINT('Origin',(0.,0.,8.));
#2049=CARTESIAN_POINT('Origin',(-39.5,0.,85.99));
#2050=CARTESIAN_POINT('',(-41.99,-20.,85.99));
#2051=CARTESIAN_POINT('',(-41.99,20.,85.99));
#2052=CARTESIAN_POINT('',(-41.99,10.,85.99));
#2053=CARTESIAN_POINT('',(-24.,-20.,85.99));
#2054=CARTESIAN_POINT('',(-40.75,-20.,85.99));
#2055=CARTESIAN_POINT('',(-24.,20.,85.99));
#2056=CARTESIAN_POINT('',(-24.,0.,85.99));
#2057=CARTESIAN_POINT('',(-38.25,20.,85.99));
#2058=CARTESIAN_POINT('',(-34.015,3.07998669985559E-16,85.99));
#2059=CARTESIAN_POINT('Origin',(-31.5,0.,85.99));
#2060=CARTESIAN_POINT('',(-34.015,10.,85.99));
#2061=CARTESIAN_POINT('Origin',(-31.5,10.,85.99));
#2062=CARTESIAN_POINT('',(-34.015,-10.,85.99));
#2063=CARTESIAN_POINT('Origin',(-31.5,-10.,85.99));
#2064=CARTESIAN_POINT('Origin',(-37.,20.,8.));
#2065=CARTESIAN_POINT('',(-24.,20.,81.));
#2066=CARTESIAN_POINT('',(-24.,20.,89.));
#2067=CARTESIAN_POINT('',(-37.,20.,81.));
#2068=CARTESIAN_POINT('',(-37.,20.,81.));
#2069=CARTESIAN_POINT('',(-37.,20.,8.));
#2070=CARTESIAN_POINT('',(-37.,20.,8.));
#2071=CARTESIAN_POINT('',(-41.99,20.,8.));
#2072=CARTESIAN_POINT('',(-42.,20.,8.));
#2073=CARTESIAN_POINT('',(-41.99,20.,4.));
#2074=CARTESIAN_POINT('Origin',(-24.,0.,91.5));
#2075=CARTESIAN_POINT('',(-24.,-20.,81.));
#2076=CARTESIAN_POINT('',(-24.,-20.,89.));
#2077=CARTESIAN_POINT('',(-24.,20.,81.));
#2078=CARTESIAN_POINT('Origin',(-37.,-20.,81.));
#2079=CARTESIAN_POINT('',(-37.,-20.,81.));
#2080=CARTESIAN_POINT('',(-37.,-20.,81.));
#2081=CARTESIAN_POINT('',(-37.,-20.,81.));
#2082=CARTESIAN_POINT('',(-34.015,-10.,81.));
#2083=CARTESIAN_POINT('Origin',(-31.5,-10.,81.));
#2084=CARTESIAN_POINT('',(-34.015,10.,81.));
#2085=CARTESIAN_POINT('Origin',(-31.5,10.,81.));
#2086=CARTESIAN_POINT('',(-34.015,0.,81.));
#2087=CARTESIAN_POINT('Origin',(-31.5,0.,81.));
#2088=CARTESIAN_POINT('Origin',(-37.,-20.,8.));
#2089=CARTESIAN_POINT('',(-37.,-20.,8.));
#2090=CARTESIAN_POINT('',(-37.,-20.,8.));
#2091=CARTESIAN_POINT('',(-37.,20.,8.));
#2092=CARTESIAN_POINT('',(-37.,2.515,31.));
#2093=CARTESIAN_POINT('Origin',(-37.,0.,31.));
#2094=CARTESIAN_POINT('',(-37.,-7.485,51.));
#2095=CARTESIAN_POINT('Origin',(-37.,-10.,51.));
#2096=CARTESIAN_POINT('',(-37.,12.515,51.));
#2097=CARTESIAN_POINT('Origin',(-37.,10.,51.));
#2098=CARTESIAN_POINT('',(-37.,2.51499999999999,71.));
#2099=CARTESIAN_POINT('Origin',(-37.,-8.88178419700125E-15,71.));
#2100=CARTESIAN_POINT('',(-37.,12.515,71.));
#2101=CARTESIAN_POINT('Origin',(-37.,10.,71.));
#2102=CARTESIAN_POINT('',(-37.,-7.485,71.));
#2103=CARTESIAN_POINT('Origin',(-37.,-10.,71.));
#2104=CARTESIAN_POINT('',(-37.,2.515,51.));
#2105=CARTESIAN_POINT('Origin',(-37.,0.,51.));
#2106=CARTESIAN_POINT('',(-37.,12.515,31.));
#2107=CARTESIAN_POINT('Origin',(-37.,10.,31.));
#2108=CARTESIAN_POINT('',(-37.,-7.485,31.));
#2109=CARTESIAN_POINT('Origin',(-37.,-10.,31.));
#2110=CARTESIAN_POINT('Origin',(-42.,-20.,8.));
#2111=CARTESIAN_POINT('',(-41.99,-20.,8.));
#2112=CARTESIAN_POINT('',(-41.99,-20.,4.));
#2113=CARTESIAN_POINT('',(-37.,-20.,8.));
#2114=CARTESIAN_POINT('Origin',(-41.99,20.,0.));
#2115=CARTESIAN_POINT('',(-41.99,10.,8.));
#2116=CARTESIAN_POINT('',(-41.99,-7.485,31.));
#2117=CARTESIAN_POINT('Origin',(-41.99,-10.,31.));
#2118=CARTESIAN_POINT('',(-41.99,12.515,31.));
#2119=CARTESIAN_POINT('Origin',(-41.99,10.,31.));
#2120=CARTESIAN_POINT('',(-41.99,2.515,51.));
#2121=CARTESIAN_POINT('Origin',(-41.99,0.,51.));
#2122=CARTESIAN_POINT('',(-41.99,-7.485,71.));
#2123=CARTESIAN_POINT('Origin',(-41.99,-10.,71.));
#2124=CARTESIAN_POINT('',(-41.99,12.515,71.));
#2125=CARTESIAN_POINT('Origin',(-41.99,10.,71.));
#2126=CARTESIAN_POINT('',(-41.99,2.51499999999999,71.));
#2127=CARTESIAN_POINT('Origin',(-41.99,-8.88178419700125E-15,71.));
#2128=CARTESIAN_POINT('',(-41.99,12.515,51.));
#2129=CARTESIAN_POINT('Origin',(-41.99,10.,51.));
#2130=CARTESIAN_POINT('',(-41.99,-7.485,51.));
#2131=CARTESIAN_POINT('Origin',(-41.99,-10.,51.));
#2132=CARTESIAN_POINT('',(-41.99,2.515,31.));
#2133=CARTESIAN_POINT('Origin',(-41.99,0.,31.));
#2134=CARTESIAN_POINT('Origin',(-31.5,-10.,89.));
#2135=CARTESIAN_POINT('',(-34.015,-10.,89.));
#2136=CARTESIAN_POINT('Origin',(-31.5,10.,89.));
#2137=CARTESIAN_POINT('',(-34.015,10.,89.));
#2138=CARTESIAN_POINT('Origin',(-31.5,0.,89.));
#2139=CARTESIAN_POINT('',(-34.015,3.07998669985559E-16,89.));
#2140=CARTESIAN_POINT('Origin',(-37.,0.,31.));
#2141=CARTESIAN_POINT('',(-37.,2.515,31.));
#2142=CARTESIAN_POINT('Origin',(-37.,-10.,51.));
#2143=CARTESIAN_POINT('',(-37.,-7.485,51.));
#2144=CARTESIAN_POINT('Origin',(-37.,10.,51.));
#2145=CARTESIAN_POINT('',(-37.,12.515,51.));
#2146=CARTESIAN_POINT('Origin',(-37.,-8.88178419700125E-15,71.));
#2147=CARTESIAN_POINT('',(-37.,2.51499999999999,71.));
#2148=CARTESIAN_POINT('Origin',(-37.,10.,71.));
#2149=CARTESIAN_POINT('',(-37.,12.515,71.));
#2150=CARTESIAN_POINT('Origin',(-37.,-10.,71.));
#2151=CARTESIAN_POINT('',(-37.,-7.485,71.));
#2152=CARTESIAN_POINT('Origin',(-37.,0.,51.));
#2153=CARTESIAN_POINT('',(-37.,2.515,51.));
#2154=CARTESIAN_POINT('Origin',(-37.,10.,31.));
#2155=CARTESIAN_POINT('',(-37.,12.515,31.));
#2156=CARTESIAN_POINT('Origin',(-37.,-10.,31.));
#2157=CARTESIAN_POINT('',(-37.,-7.485,31.));
#2158=CARTESIAN_POINT('Origin',(-39.5,0.,8.));
#2159=CARTESIAN_POINT('Origin',(39.5,0.,85.99));
#2160=CARTESIAN_POINT('',(41.99,20.,85.99));
#2161=CARTESIAN_POINT('',(41.99,-20.,85.99));
#2162=CARTESIAN_POINT('',(41.99,-10.,85.99));
#2163=CARTESIAN_POINT('',(24.,20.,85.99));
#2164=CARTESIAN_POINT('',(40.75,20.,85.99));
#2165=CARTESIAN_POINT('',(24.,-20.,85.99));
#2166=CARTESIAN_POINT('',(24.,0.,85.99));
#2167=CARTESIAN_POINT('',(38.25,-20.,85.99));
#2168=CARTESIAN_POINT('',(28.985,3.07998669985559E-16,85.99));
#2169=CARTESIAN_POINT('Origin',(31.5,0.,85.99));
#2170=CARTESIAN_POINT('',(28.985,10.,85.99));
#2171=CARTESIAN_POINT('Origin',(31.5,10.,85.99));
#2172=CARTESIAN_POINT('',(28.985,-10.,85.99));
#2173=CARTESIAN_POINT('Origin',(31.5,-10.,85.99));
#2174=CARTESIAN_POINT('Origin',(37.,-20.,8.));
#2175=CARTESIAN_POINT('',(24.,-20.,81.));
#2176=CARTESIAN_POINT('',(24.,-20.,89.));
#2177=CARTESIAN_POINT('',(37.,-20.,81.));
#2178=CARTESIAN_POINT('',(37.,-20.,81.));
#2179=CARTESIAN_POINT('',(37.,-20.,8.));
#2180=CARTESIAN_POINT('',(37.,-20.,8.));
#2181=CARTESIAN_POINT('',(41.99,-20.,8.));
#2182=CARTESIAN_POINT('',(37.,-20.,8.));
#2183=CARTESIAN_POINT('',(41.99,-20.,8.));
#2184=CARTESIAN_POINT('Origin',(24.,0.,91.5));
#2185=CARTESIAN_POINT('',(24.,20.,81.));
#2186=CARTESIAN_POINT('',(24.,20.,89.));
#2187=CARTESIAN_POINT('',(24.,-20.,81.));
#2188=CARTESIAN_POINT('Origin',(37.,20.,81.));
#2189=CARTESIAN_POINT('',(37.,20.,81.));
#2190=CARTESIAN_POINT('',(37.,20.,81.));
#2191=CARTESIAN_POINT('',(37.,20.,81.));
#2192=CARTESIAN_POINT('',(28.985,-3.07998669985559E-16,81.));
#2193=CARTESIAN_POINT('Origin',(31.5,0.,81.));
#2194=CARTESIAN_POINT('',(28.985,10.,81.));
#2195=CARTESIAN_POINT('Origin',(31.5,10.,81.));
#2196=CARTESIAN_POINT('',(28.985,-10.,81.));
#2197=CARTESIAN_POINT('Origin',(31.5,-10.,81.));
#2198=CARTESIAN_POINT('Origin',(37.,20.,8.));
#2199=CARTESIAN_POINT('',(37.,20.,8.));
#2200=CARTESIAN_POINT('',(37.,20.,8.));
#2201=CARTESIAN_POINT('',(37.,20.,8.));
#2202=CARTESIAN_POINT('',(37.,-2.515,31.));
#2203=CARTESIAN_POINT('Origin',(37.,0.,31.));
#2204=CARTESIAN_POINT('',(37.,7.485,51.));
#2205=CARTESIAN_POINT('Origin',(37.,10.,51.));
#2206=CARTESIAN_POINT('',(37.,-12.515,51.));
#2207=CARTESIAN_POINT('Origin',(37.,-10.,51.));
#2208=CARTESIAN_POINT('',(37.,-2.51499999999999,71.));
#2209=CARTESIAN_POINT('Origin',(37.,8.88178419700125E-15,71.));
#2210=CARTESIAN_POINT('',(37.,-12.515,71.));
#2211=CARTESIAN_POINT('Origin',(37.,-10.,71.));
#2212=CARTESIAN_POINT('',(37.,7.485,71.));
#2213=CARTESIAN_POINT('Origin',(37.,10.,71.));
#2214=CARTESIAN_POINT('',(37.,-2.515,51.));
#2215=CARTESIAN_POINT('Origin',(37.,0.,51.));
#2216=CARTESIAN_POINT('',(37.,-12.515,31.));
#2217=CARTESIAN_POINT('Origin',(37.,-10.,31.));
#2218=CARTESIAN_POINT('',(37.,7.485,31.));
#2219=CARTESIAN_POINT('Origin',(37.,10.,31.));
#2220=CARTESIAN_POINT('Origin',(42.,20.,8.));
#2221=CARTESIAN_POINT('',(41.99,20.,8.));
#2222=CARTESIAN_POINT('',(41.99,20.,8.));
#2223=CARTESIAN_POINT('',(42.,20.,8.));
#2224=CARTESIAN_POINT('Origin',(41.99,-20.,8.));
#2225=CARTESIAN_POINT('',(41.99,-10.,8.));
#2226=CARTESIAN_POINT('',(41.99,7.485,31.));
#2227=CARTESIAN_POINT('Origin',(41.99,10.,31.));
#2228=CARTESIAN_POINT('',(41.99,-12.515,31.));
#2229=CARTESIAN_POINT('Origin',(41.99,-10.,31.));
#2230=CARTESIAN_POINT('',(41.99,-2.515,51.));
#2231=CARTESIAN_POINT('Origin',(41.99,0.,51.));
#2232=CARTESIAN_POINT('',(41.99,7.485,71.));
#2233=CARTESIAN_POINT('Origin',(41.99,10.,71.));
#2234=CARTESIAN_POINT('',(41.99,-12.515,71.));
#2235=CARTESIAN_POINT('Origin',(41.99,-10.,71.));
#2236=CARTESIAN_POINT('',(41.99,-2.51499999999999,71.));
#2237=CARTESIAN_POINT('Origin',(41.99,8.88178419700125E-15,71.));
#2238=CARTESIAN_POINT('',(41.99,-12.515,51.));
#2239=CARTESIAN_POINT('Origin',(41.99,-10.,51.));
#2240=CARTESIAN_POINT('',(41.99,7.485,51.));
#2241=CARTESIAN_POINT('Origin',(41.99,10.,51.));
#2242=CARTESIAN_POINT('',(41.99,-2.515,31.));
#2243=CARTESIAN_POINT('Origin',(41.99,0.,31.));
#2244=CARTESIAN_POINT('Origin',(39.5,0.,8.));
#2245=CARTESIAN_POINT('Origin',(31.5,0.,89.));
#2246=CARTESIAN_POINT('',(28.985,3.07998669985559E-16,89.));
#2247=CARTESIAN_POINT('Origin',(31.5,10.,89.));
#2248=CARTESIAN_POINT('',(28.985,10.,89.));
#2249=CARTESIAN_POINT('Origin',(31.5,-10.,89.));
#2250=CARTESIAN_POINT('',(28.985,-10.,89.));
#2251=CARTESIAN_POINT('Origin',(37.,0.,31.));
#2252=CARTESIAN_POINT('',(37.,-2.515,31.));
#2253=CARTESIAN_POINT('Origin',(37.,10.,51.));
#2254=CARTESIAN_POINT('',(37.,7.485,51.));
#2255=CARTESIAN_POINT('Origin',(37.,-10.,51.));
#2256=CARTESIAN_POINT('',(37.,-12.515,51.));
#2257=CARTESIAN_POINT('Origin',(37.,8.88178419700125E-15,71.));
#2258=CARTESIAN_POINT('',(37.,-2.51499999999999,71.));
#2259=CARTESIAN_POINT('Origin',(37.,-10.,71.));
#2260=CARTESIAN_POINT('',(37.,-12.515,71.));
#2261=CARTESIAN_POINT('Origin',(37.,10.,71.));
#2262=CARTESIAN_POINT('',(37.,7.485,71.));
#2263=CARTESIAN_POINT('Origin',(37.,0.,51.));
#2264=CARTESIAN_POINT('',(37.,-2.515,51.));
#2265=CARTESIAN_POINT('Origin',(37.,-10.,31.));
#2266=CARTESIAN_POINT('',(37.,-12.515,31.));
#2267=CARTESIAN_POINT('Origin',(37.,10.,31.));
#2268=CARTESIAN_POINT('',(37.,7.485,31.));
#2269=UNCERTAINTY_MEASURE_WITH_UNIT(LENGTH_MEASURE(0.01),#2273,
'DISTANCE_ACCURACY_VALUE',
'Maximum model space distance between geometric entities at asserted c
onnectivities');
#2270=UNCERTAINTY_MEASURE_WITH_UNIT(LENGTH_MEASURE(0.01),#2273,
'DISTANCE_ACCURACY_VALUE',
'Maximum model space distance between geometric entities at asserted c
onnectivities');
#2271=(
GEOMETRIC_REPRESENTATION_CONTEXT(3)
GLOBAL_UNCERTAINTY_ASSIGNED_CONTEXT((#2269))
GLOBAL_UNIT_ASSIGNED_CONTEXT((#2273,#2275,#2276))
REPRESENTATION_CONTEXT('','3D')
);
#2272=(
GEOMETRIC_REPRESENTATION_CONTEXT(3)
GLOBAL_UNCERTAINTY_ASSIGNED_CONTEXT((#2270))
GLOBAL_UNIT_ASSIGNED_CONTEXT((#2273,#2275,#2276))
REPRESENTATION_CONTEXT('','3D')
);
#2273=(
LENGTH_UNIT()
NAMED_UNIT(*)
SI_UNIT(.MILLI.,.METRE.)
);
#2274=(
LENGTH_UNIT()
NAMED_UNIT(*)
SI_UNIT($,.METRE.)
);
#2275=(
NAMED_UNIT(*)
PLANE_ANGLE_UNIT()
SI_UNIT($,.RADIAN.)
);
#2276=(
NAMED_UNIT(*)
SI_UNIT($,.STERADIAN.)
SOLID_ANGLE_UNIT()
);
#2277=SHAPE_DEFINITION_REPRESENTATION(#2278,#2279);
#2278=PRODUCT_DEFINITION_SHAPE('',$,#2281);
#2279=SHAPE_REPRESENTATION('',(#1373),#2271);
#2280=PRODUCT_DEFINITION_CONTEXT('part definition',#2285,'design');
#2281=PRODUCT_DEFINITION('2026-06-15-20-38-50-288','(\X2\672A4FDD5B58\X0\)',
#2282,#2280);
#2282=PRODUCT_DEFINITION_FORMATION('',$,#2287);
#2283=PRODUCT_RELATED_PRODUCT_CATEGORY('(\X2\672A4FDD5B58\X0\)',
'(\X2\672A4FDD5B58\X0\)',(#2287));
#2284=APPLICATION_PROTOCOL_DEFINITION('international standard',
'automotive_design',2009,#2285);
#2285=APPLICATION_CONTEXT(
'Core Data for Automotive Mechanical Design Process');
#2286=PRODUCT_CONTEXT('part definition',#2285,'mechanical');
#2287=PRODUCT('2026-06-15-20-38-50-288','(\X2\672A4FDD5B58\X0\)',$,(#2286));
#2288=PRESENTATION_STYLE_ASSIGNMENT((#2289));
#2289=SURFACE_STYLE_USAGE(.BOTH.,#2290);
#2290=SURFACE_SIDE_STYLE('',(#2291));
#2291=SURFACE_STYLE_FILL_AREA(#2292);
#2292=FILL_AREA_STYLE('\X2\94A2\X0\ - \X2\7F0E5149\X0\',(#2293));
#2293=FILL_AREA_STYLE_COLOUR('\X2\94A2\X0\ - \X2\7F0E5149\X0\',#2294);
#2294=COLOUR_RGB('\X2\94A2\X0\ - \X2\7F0E5149\X0\',0.627450980392157,0.627450980392157,
0.627450980392157);
ENDSEC;
END-ISO-10303-21;
