ISO-10303-21;
HEADER;
/* Generated by software containing ST-Developer
 * from STEP Tools, Inc. (www.steptools.com) 
 */

FILE_DESCRIPTION(
/* description */ (''),
/* implementation_level */ '2;1');

FILE_NAME(
/* name */ '',
/* time_stamp */ '2026-09-02T21:26:50+08:00',
/* author */ (''),
/* organization */ (''),
/* preprocessor_version */ 'ST-DEVELOPER v20.1',
/* originating_system */ 'Autodesk Translation Framework v15.8.0.0',
/* authorisation */ '');

FILE_SCHEMA (('AUTOMOTIVE_DESIGN { 1 0 10303 214 3 1 1 }'));
ENDSEC;

DATA;
#10=MECHANICAL_DESIGN_GEOMETRIC_PRESENTATION_REPRESENTATION('',(#13),#575);
#11=SHAPE_REPRESENTATION_RELATIONSHIP('SRR','None',#581,#12);
#12=ADVANCED_BREP_SHAPE_REPRESENTATION('',(#14),#574);
#13=STYLED_ITEM('',(#590),#14);
#14=MANIFOLD_SOLID_BREP('\X2\5B9E4F53\X0\15',#303);
#15=(
BOUNDED_SURFACE()
B_SPLINE_SURFACE(1,2,((#445,#446,#447,#448,#449,#450,#451,#452,#453),(#454,
#455,#456,#457,#458,#459,#460,#461,#462)),.UNSPECIFIED.,.F.,.T.,.F.)
B_SPLINE_SURFACE_WITH_KNOTS((2,2),(3,2,2,2,3),(0.,1.65562913907285),(-3.14159265358979,
-1.5707963267949,0.,1.5707963267949,3.14159265358979),.UNSPECIFIED.)
GEOMETRIC_REPRESENTATION_ITEM()
RATIONAL_B_SPLINE_SURFACE(((1.,0.707106781186548,1.,0.707106781186548,1.,
0.707106781186548,1.,0.707106781186548,1.),(1.,0.707106781186548,1.,0.707106781186548,
1.,0.707106781186548,1.,0.707106781186548,1.)))
REPRESENTATION_ITEM('')
SURFACE()
);
#16=(
BOUNDED_SURFACE()
B_SPLINE_SURFACE(1,2,((#466,#467,#468,#469,#470,#471,#472,#473,#474),(#475,
#476,#477,#478,#479,#480,#481,#482,#483)),.UNSPECIFIED.,.F.,.T.,.F.)
B_SPLINE_SURFACE_WITH_KNOTS((2,2),(3,2,2,2,3),(0.,1.65562913907285),(-3.14159265358979,
-1.5707963267949,0.,1.5707963267949,3.14159265358979),.UNSPECIFIED.)
GEOMETRIC_REPRESENTATION_ITEM()
RATIONAL_B_SPLINE_SURFACE(((1.,0.707106781186548,1.,0.707106781186548,1.,
0.707106781186548,1.,0.707106781186548,1.),(1.,0.707106781186548,1.,0.707106781186548,
1.,0.707106781186548,1.,0.707106781186548,1.)))
REPRESENTATION_ITEM('')
SURFACE()
);
#17=(
BOUNDED_SURFACE()
B_SPLINE_SURFACE(1,2,((#487,#488,#489,#490,#491,#492,#493,#494,#495),(#496,
#497,#498,#499,#500,#501,#502,#503,#504)),.UNSPECIFIED.,.F.,.T.,.F.)
B_SPLINE_SURFACE_WITH_KNOTS((2,2),(3,2,2,2,3),(0.,2.83950617283951),(-3.14159265358979,
-1.5707963267949,0.,1.5707963267949,3.14159265358979),.UNSPECIFIED.)
GEOMETRIC_REPRESENTATION_ITEM()
RATIONAL_B_SPLINE_SURFACE(((1.,0.707106781186548,1.,0.707106781186548,1.,
0.707106781186548,1.,0.707106781186548,1.),(1.,0.707106781186548,1.,0.707106781186548,
1.,0.707106781186548,1.,0.707106781186548,1.)))
REPRESENTATION_ITEM('')
SURFACE()
);
#18=(
BOUNDED_SURFACE()
B_SPLINE_SURFACE(1,2,((#511,#512,#513,#514,#515,#516,#517,#518,#519),(#520,
#521,#522,#523,#524,#525,#526,#527,#528)),.UNSPECIFIED.,.F.,.T.,.F.)
B_SPLINE_SURFACE_WITH_KNOTS((2,2),(3,2,2,2,3),(0.,2.83950617283951),(-3.14159265358979,
-1.5707963267949,0.,1.5707963267949,3.14159265358979),.UNSPECIFIED.)
GEOMETRIC_REPRESENTATION_ITEM()
RATIONAL_B_SPLINE_SURFACE(((1.,0.707106781186548,1.,0.707106781186548,1.,
0.707106781186548,1.,0.707106781186548,1.),(1.,0.707106781186548,1.,0.707106781186548,
1.,0.707106781186548,1.,0.707106781186548,1.)))
REPRESENTATION_ITEM('')
SURFACE()
);
#19=FACE_BOUND('',#104,.T.);
#20=FACE_BOUND('',#107,.T.);
#21=FACE_BOUND('',#117,.T.);
#22=FACE_BOUND('',#123,.T.);
#23=FACE_BOUND('',#124,.T.);
#24=FACE_BOUND('',#126,.T.);
#25=FACE_BOUND('',#127,.T.);
#26=FACE_BOUND('',#128,.T.);
#27=FACE_BOUND('',#129,.T.);
#28=FACE_BOUND('',#130,.T.);
#29=ELLIPSE('',#311,3.02,3.0198850076538);
#30=ELLIPSE('',#316,3.02,3.0198850076538);
#31=ELLIPSE('',#317,3.02,3.0198850076538);
#32=ELLIPSE('',#318,3.02,3.0198850076538);
#33=ELLIPSE('',#319,4.05,4.04984578840989);
#34=ELLIPSE('',#320,4.05,4.04984578840989);
#35=ELLIPSE('',#322,4.05,4.04984578840989);
#36=ELLIPSE('',#323,4.05,4.04984578840989);
#37=LINE('',#431,#57);
#38=LINE('',#440,#58);
#39=LINE('',#465,#59);
#40=LINE('',#486,#60);
#41=LINE('',#508,#61);
#42=LINE('',#532,#62);
#43=LINE('',#538,#63);
#44=LINE('',#543,#64);
#45=LINE('',#549,#65);
#46=LINE('',#551,#66);
#47=LINE('',#553,#67);
#48=LINE('',#554,#68);
#49=LINE('',#557,#69);
#50=LINE('',#559,#70);
#51=LINE('',#560,#71);
#52=LINE('',#563,#72);
#53=LINE('',#565,#73);
#54=LINE('',#566,#74);
#55=LINE('',#568,#75);
#56=LINE('',#569,#76);
#57=VECTOR('',#347,6.);
#58=VECTOR('',#358,6.);
#59=VECTOR('',#367,3.02);
#60=VECTOR('',#370,3.02);
#61=VECTOR('',#373,4.05);
#62=VECTOR('',#380,4.05);
#63=VECTOR('',#389,4.25);
#64=VECTOR('',#394,11.);
#65=VECTOR('',#401,10.);
#66=VECTOR('',#402,10.);
#67=VECTOR('',#403,10.);
#68=VECTOR('',#404,10.);
#69=VECTOR('',#407,10.);
#70=VECTOR('',#408,10.);
#71=VECTOR('',#409,10.);
#72=VECTOR('',#412,10.);
#73=VECTOR('',#413,10.);
#74=VECTOR('',#414,10.);
#75=VECTOR('',#417,10.);
#76=VECTOR('',#418,10.);
#77=CYLINDRICAL_SURFACE('',#307,6.);
#78=CYLINDRICAL_SURFACE('',#312,6.);
#79=CYLINDRICAL_SURFACE('',#325,4.25);
#80=CYLINDRICAL_SURFACE('',#327,11.);
#81=FACE_OUTER_BOUND('',#101,.T.);
#82=FACE_OUTER_BOUND('',#102,.T.);
#83=FACE_OUTER_BOUND('',#103,.T.);
#84=FACE_OUTER_BOUND('',#105,.T.);
#85=FACE_OUTER_BOUND('',#106,.T.);
#86=FACE_OUTER_BOUND('',#108,.T.);
#87=FACE_OUTER_BOUND('',#109,.T.);
#88=FACE_OUTER_BOUND('',#110,.T.);
#89=FACE_OUTER_BOUND('',#111,.T.);
#90=FACE_OUTER_BOUND('',#112,.T.);
#91=FACE_OUTER_BOUND('',#113,.T.);
#92=FACE_OUTER_BOUND('',#114,.T.);
#93=FACE_OUTER_BOUND('',#115,.T.);
#94=FACE_OUTER_BOUND('',#116,.T.);
#95=FACE_OUTER_BOUND('',#118,.T.);
#96=FACE_OUTER_BOUND('',#119,.T.);
#97=FACE_OUTER_BOUND('',#120,.T.);
#98=FACE_OUTER_BOUND('',#121,.T.);
#99=FACE_OUTER_BOUND('',#122,.T.);
#100=FACE_OUTER_BOUND('',#125,.T.);
#101=EDGE_LOOP('',(#199));
#102=EDGE_LOOP('',(#200,#201,#202,#203));
#103=EDGE_LOOP('',(#204));
#104=EDGE_LOOP('',(#205));
#105=EDGE_LOOP('',(#206,#207,#208,#209));
#106=EDGE_LOOP('',(#210));
#107=EDGE_LOOP('',(#211));
#108=EDGE_LOOP('',(#212,#213,#214,#215));
#109=EDGE_LOOP('',(#216,#217,#218,#219));
#110=EDGE_LOOP('',(#220,#221,#222,#223));
#111=EDGE_LOOP('',(#224));
#112=EDGE_LOOP('',(#225,#226,#227,#228));
#113=EDGE_LOOP('',(#229));
#114=EDGE_LOOP('',(#230,#231,#232,#233));
#115=EDGE_LOOP('',(#234,#235,#236,#237));
#116=EDGE_LOOP('',(#238));
#117=EDGE_LOOP('',(#239));
#118=EDGE_LOOP('',(#240,#241,#242,#243));
#119=EDGE_LOOP('',(#244,#245,#246,#247));
#120=EDGE_LOOP('',(#248,#249,#250,#251));
#121=EDGE_LOOP('',(#252,#253,#254,#255));
#122=EDGE_LOOP('',(#256,#257,#258,#259));
#123=EDGE_LOOP('',(#260));
#124=EDGE_LOOP('',(#261));
#125=EDGE_LOOP('',(#262,#263,#264,#265));
#126=EDGE_LOOP('',(#266));
#127=EDGE_LOOP('',(#267));
#128=EDGE_LOOP('',(#268));
#129=EDGE_LOOP('',(#269));
#130=EDGE_LOOP('',(#270));
#131=CIRCLE('',#306,4.25);
#132=CIRCLE('',#308,6.);
#133=CIRCLE('',#309,6.);
#134=CIRCLE('',#313,6.);
#135=CIRCLE('',#314,6.);
#136=CIRCLE('',#326,4.25);
#137=CIRCLE('',#328,11.);
#138=CIRCLE('',#329,11.);
#139=VERTEX_POINT('',#425);
#140=VERTEX_POINT('',#428);
#141=VERTEX_POINT('',#430);
#142=VERTEX_POINT('',#434);
#143=VERTEX_POINT('',#437);
#144=VERTEX_POINT('',#439);
#145=VERTEX_POINT('',#443);
#146=VERTEX_POINT('',#463);
#147=VERTEX_POINT('',#484);
#148=VERTEX_POINT('',#505);
#149=VERTEX_POINT('',#507);
#150=VERTEX_POINT('',#529);
#151=VERTEX_POINT('',#531);
#152=VERTEX_POINT('',#536);
#153=VERTEX_POINT('',#540);
#154=VERTEX_POINT('',#542);
#155=VERTEX_POINT('',#547);
#156=VERTEX_POINT('',#548);
#157=VERTEX_POINT('',#550);
#158=VERTEX_POINT('',#552);
#159=VERTEX_POINT('',#556);
#160=VERTEX_POINT('',#558);
#161=VERTEX_POINT('',#562);
#162=VERTEX_POINT('',#564);
#163=EDGE_CURVE('',#139,#139,#131,.T.);
#164=EDGE_CURVE('',#140,#140,#132,.T.);
#165=EDGE_CURVE('',#140,#141,#37,.T.);
#166=EDGE_CURVE('',#141,#141,#133,.T.);
#167=EDGE_CURVE('',#142,#142,#29,.T.);
#168=EDGE_CURVE('',#143,#143,#134,.T.);
#169=EDGE_CURVE('',#143,#144,#38,.T.);
#170=EDGE_CURVE('',#144,#144,#135,.T.);
#171=EDGE_CURVE('',#145,#145,#30,.T.);
#172=EDGE_CURVE('',#146,#146,#31,.T.);
#173=EDGE_CURVE('',#146,#142,#39,.T.);
#174=EDGE_CURVE('',#147,#147,#32,.T.);
#175=EDGE_CURVE('',#147,#145,#40,.T.);
#176=EDGE_CURVE('',#148,#148,#33,.T.);
#177=EDGE_CURVE('',#148,#149,#41,.T.);
#178=EDGE_CURVE('',#149,#149,#34,.T.);
#179=EDGE_CURVE('',#150,#150,#35,.T.);
#180=EDGE_CURVE('',#150,#151,#42,.T.);
#181=EDGE_CURVE('',#151,#151,#36,.T.);
#182=EDGE_CURVE('',#152,#152,#136,.T.);
#183=EDGE_CURVE('',#152,#139,#43,.T.);
#184=EDGE_CURVE('',#153,#153,#137,.T.);
#185=EDGE_CURVE('',#153,#154,#44,.T.);
#186=EDGE_CURVE('',#154,#154,#138,.T.);
#187=EDGE_CURVE('',#155,#156,#45,.T.);
#188=EDGE_CURVE('',#155,#157,#46,.T.);
#189=EDGE_CURVE('',#158,#157,#47,.T.);
#190=EDGE_CURVE('',#156,#158,#48,.T.);
#191=EDGE_CURVE('',#156,#159,#49,.T.);
#192=EDGE_CURVE('',#160,#158,#50,.T.);
#193=EDGE_CURVE('',#159,#160,#51,.T.);
#194=EDGE_CURVE('',#159,#161,#52,.T.);
#195=EDGE_CURVE('',#162,#160,#53,.T.);
#196=EDGE_CURVE('',#161,#162,#54,.T.);
#197=EDGE_CURVE('',#161,#155,#55,.T.);
#198=EDGE_CURVE('',#157,#162,#56,.T.);
#199=ORIENTED_EDGE('',*,*,#163,.F.);
#200=ORIENTED_EDGE('',*,*,#164,.F.);
#201=ORIENTED_EDGE('',*,*,#165,.T.);
#202=ORIENTED_EDGE('',*,*,#166,.T.);
#203=ORIENTED_EDGE('',*,*,#165,.F.);
#204=ORIENTED_EDGE('',*,*,#166,.F.);
#205=ORIENTED_EDGE('',*,*,#167,.F.);
#206=ORIENTED_EDGE('',*,*,#168,.F.);
#207=ORIENTED_EDGE('',*,*,#169,.T.);
#208=ORIENTED_EDGE('',*,*,#170,.T.);
#209=ORIENTED_EDGE('',*,*,#169,.F.);
#210=ORIENTED_EDGE('',*,*,#170,.F.);
#211=ORIENTED_EDGE('',*,*,#171,.F.);
#212=ORIENTED_EDGE('',*,*,#172,.F.);
#213=ORIENTED_EDGE('',*,*,#173,.T.);
#214=ORIENTED_EDGE('',*,*,#167,.T.);
#215=ORIENTED_EDGE('',*,*,#173,.F.);
#216=ORIENTED_EDGE('',*,*,#174,.F.);
#217=ORIENTED_EDGE('',*,*,#175,.T.);
#218=ORIENTED_EDGE('',*,*,#171,.T.);
#219=ORIENTED_EDGE('',*,*,#175,.F.);
#220=ORIENTED_EDGE('',*,*,#176,.F.);
#221=ORIENTED_EDGE('',*,*,#177,.T.);
#222=ORIENTED_EDGE('',*,*,#178,.T.);
#223=ORIENTED_EDGE('',*,*,#177,.F.);
#224=ORIENTED_EDGE('',*,*,#178,.F.);
#225=ORIENTED_EDGE('',*,*,#179,.F.);
#226=ORIENTED_EDGE('',*,*,#180,.T.);
#227=ORIENTED_EDGE('',*,*,#181,.T.);
#228=ORIENTED_EDGE('',*,*,#180,.F.);
#229=ORIENTED_EDGE('',*,*,#181,.F.);
#230=ORIENTED_EDGE('',*,*,#182,.F.);
#231=ORIENTED_EDGE('',*,*,#183,.T.);
#232=ORIENTED_EDGE('',*,*,#163,.T.);
#233=ORIENTED_EDGE('',*,*,#183,.F.);
#234=ORIENTED_EDGE('',*,*,#184,.F.);
#235=ORIENTED_EDGE('',*,*,#185,.T.);
#236=ORIENTED_EDGE('',*,*,#186,.T.);
#237=ORIENTED_EDGE('',*,*,#185,.F.);
#238=ORIENTED_EDGE('',*,*,#186,.F.);
#239=ORIENTED_EDGE('',*,*,#182,.T.);
#240=ORIENTED_EDGE('',*,*,#187,.F.);
#241=ORIENTED_EDGE('',*,*,#188,.T.);
#242=ORIENTED_EDGE('',*,*,#189,.F.);
#243=ORIENTED_EDGE('',*,*,#190,.F.);
#244=ORIENTED_EDGE('',*,*,#191,.F.);
#245=ORIENTED_EDGE('',*,*,#190,.T.);
#246=ORIENTED_EDGE('',*,*,#192,.F.);
#247=ORIENTED_EDGE('',*,*,#193,.F.);
#248=ORIENTED_EDGE('',*,*,#194,.F.);
#249=ORIENTED_EDGE('',*,*,#193,.T.);
#250=ORIENTED_EDGE('',*,*,#195,.F.);
#251=ORIENTED_EDGE('',*,*,#196,.F.);
#252=ORIENTED_EDGE('',*,*,#197,.F.);
#253=ORIENTED_EDGE('',*,*,#196,.T.);
#254=ORIENTED_EDGE('',*,*,#198,.F.);
#255=ORIENTED_EDGE('',*,*,#188,.F.);
#256=ORIENTED_EDGE('',*,*,#198,.T.);
#257=ORIENTED_EDGE('',*,*,#195,.T.);
#258=ORIENTED_EDGE('',*,*,#192,.T.);
#259=ORIENTED_EDGE('',*,*,#189,.T.);
#260=ORIENTED_EDGE('',*,*,#164,.T.);
#261=ORIENTED_EDGE('',*,*,#168,.T.);
#262=ORIENTED_EDGE('',*,*,#197,.T.);
#263=ORIENTED_EDGE('',*,*,#187,.T.);
#264=ORIENTED_EDGE('',*,*,#191,.T.);
#265=ORIENTED_EDGE('',*,*,#194,.T.);
#266=ORIENTED_EDGE('',*,*,#172,.T.);
#267=ORIENTED_EDGE('',*,*,#174,.T.);
#268=ORIENTED_EDGE('',*,*,#176,.T.);
#269=ORIENTED_EDGE('',*,*,#179,.T.);
#270=ORIENTED_EDGE('',*,*,#184,.T.);
#271=PLANE('',#305);
#272=PLANE('',#310);
#273=PLANE('',#315);
#274=PLANE('',#321);
#275=PLANE('',#324);
#276=PLANE('',#330);
#277=PLANE('',#331);
#278=PLANE('',#332);
#279=PLANE('',#333);
#280=PLANE('',#334);
#281=PLANE('',#335);
#282=PLANE('',#336);
#283=ADVANCED_FACE('',(#81),#271,.F.);
#284=ADVANCED_FACE('',(#82),#77,.F.);
#285=ADVANCED_FACE('',(#83,#19),#272,.T.);
#286=ADVANCED_FACE('',(#84),#78,.F.);
#287=ADVANCED_FACE('',(#85,#20),#273,.T.);
#288=ADVANCED_FACE('',(#86),#15,.T.);
#289=ADVANCED_FACE('',(#87),#16,.T.);
#290=ADVANCED_FACE('',(#88),#17,.T.);
#291=ADVANCED_FACE('',(#89),#274,.F.);
#292=ADVANCED_FACE('',(#90),#18,.T.);
#293=ADVANCED_FACE('',(#91),#275,.F.);
#294=ADVANCED_FACE('',(#92),#79,.F.);
#295=ADVANCED_FACE('',(#93),#80,.F.);
#296=ADVANCED_FACE('',(#94,#21),#276,.F.);
#297=ADVANCED_FACE('',(#95),#277,.T.);
#298=ADVANCED_FACE('',(#96),#278,.T.);
#299=ADVANCED_FACE('',(#97),#279,.T.);
#300=ADVANCED_FACE('',(#98),#280,.T.);
#301=ADVANCED_FACE('',(#99,#22,#23),#281,.T.);
#302=ADVANCED_FACE('',(#100,#24,#25,#26,#27,#28),#282,.F.);
#303=CLOSED_SHELL('',(#283,#284,#285,#286,#287,#288,#289,#290,#291,#292,
#293,#294,#295,#296,#297,#298,#299,#300,#301,#302));
#304=AXIS2_PLACEMENT_3D('',#423,#337,#338);
#305=AXIS2_PLACEMENT_3D('',#424,#339,#340);
#306=AXIS2_PLACEMENT_3D('',#426,#341,#342);
#307=AXIS2_PLACEMENT_3D('',#427,#343,#344);
#308=AXIS2_PLACEMENT_3D('',#429,#345,#346);
#309=AXIS2_PLACEMENT_3D('',#432,#348,#349);
#310=AXIS2_PLACEMENT_3D('',#433,#350,#351);
#311=AXIS2_PLACEMENT_3D('',#435,#352,#353);
#312=AXIS2_PLACEMENT_3D('',#436,#354,#355);
#313=AXIS2_PLACEMENT_3D('',#438,#356,#357);
#314=AXIS2_PLACEMENT_3D('',#441,#359,#360);
#315=AXIS2_PLACEMENT_3D('',#442,#361,#362);
#316=AXIS2_PLACEMENT_3D('',#444,#363,#364);
#317=AXIS2_PLACEMENT_3D('',#464,#365,#366);
#318=AXIS2_PLACEMENT_3D('',#485,#368,#369);
#319=AXIS2_PLACEMENT_3D('',#506,#371,#372);
#320=AXIS2_PLACEMENT_3D('',#509,#374,#375);
#321=AXIS2_PLACEMENT_3D('',#510,#376,#377);
#322=AXIS2_PLACEMENT_3D('',#530,#378,#379);
#323=AXIS2_PLACEMENT_3D('',#533,#381,#382);
#324=AXIS2_PLACEMENT_3D('',#534,#383,#384);
#325=AXIS2_PLACEMENT_3D('',#535,#385,#386);
#326=AXIS2_PLACEMENT_3D('',#537,#387,#388);
#327=AXIS2_PLACEMENT_3D('',#539,#390,#391);
#328=AXIS2_PLACEMENT_3D('',#541,#392,#393);
#329=AXIS2_PLACEMENT_3D('',#544,#395,#396);
#330=AXIS2_PLACEMENT_3D('',#545,#397,#398);
#331=AXIS2_PLACEMENT_3D('',#546,#399,#400);
#332=AXIS2_PLACEMENT_3D('',#555,#405,#406);
#333=AXIS2_PLACEMENT_3D('',#561,#410,#411);
#334=AXIS2_PLACEMENT_3D('',#567,#415,#416);
#335=AXIS2_PLACEMENT_3D('',#570,#419,#420);
#336=AXIS2_PLACEMENT_3D('',#571,#421,#422);
#337=DIRECTION('axis',(0.,0.,1.));
#338=DIRECTION('refdir',(1.,0.,0.));
#339=DIRECTION('center_axis',(0.,1.,0.));
#340=DIRECTION('ref_axis',(-1.,0.,0.));
#341=DIRECTION('center_axis',(0.,1.,0.));
#342=DIRECTION('ref_axis',(1.,0.,0.));
#343=DIRECTION('center_axis',(0.,-1.,0.));
#344=DIRECTION('ref_axis',(-1.,0.,0.));
#345=DIRECTION('center_axis',(0.,-1.,0.));
#346=DIRECTION('ref_axis',(-1.,0.,0.));
#347=DIRECTION('',(0.,-1.,0.));
#348=DIRECTION('center_axis',(0.,-1.,0.));
#349=DIRECTION('ref_axis',(-1.,0.,0.));
#350=DIRECTION('center_axis',(0.,1.,0.));
#351=DIRECTION('ref_axis',(-1.,0.,0.));
#352=DIRECTION('center_axis',(0.,1.,0.));
#353=DIRECTION('ref_axis',(0.,0.,-1.));
#354=DIRECTION('center_axis',(0.,-1.,0.));
#355=DIRECTION('ref_axis',(-1.,0.,0.));
#356=DIRECTION('center_axis',(0.,-1.,0.));
#357=DIRECTION('ref_axis',(-1.,0.,0.));
#358=DIRECTION('',(0.,-1.,0.));
#359=DIRECTION('center_axis',(0.,-1.,0.));
#360=DIRECTION('ref_axis',(-1.,0.,0.));
#361=DIRECTION('center_axis',(0.,1.,0.));
#362=DIRECTION('ref_axis',(-1.,0.,0.));
#363=DIRECTION('center_axis',(0.,1.,0.));
#364=DIRECTION('ref_axis',(0.,0.,-1.));
#365=DIRECTION('center_axis',(0.,1.,0.));
#366=DIRECTION('ref_axis',(0.,0.,-1.));
#367=DIRECTION('',(0.,1.,0.));
#368=DIRECTION('center_axis',(0.,1.,0.));
#369=DIRECTION('ref_axis',(0.,0.,-1.));
#370=DIRECTION('',(0.,1.,0.));
#371=DIRECTION('center_axis',(0.,1.,0.));
#372=DIRECTION('ref_axis',(0.,0.,1.));
#373=DIRECTION('',(0.,1.,0.));
#374=DIRECTION('center_axis',(0.,1.,0.));
#375=DIRECTION('ref_axis',(0.,0.,1.));
#376=DIRECTION('center_axis',(0.,1.,0.));
#377=DIRECTION('ref_axis',(1.,0.,0.));
#378=DIRECTION('center_axis',(0.,1.,0.));
#379=DIRECTION('ref_axis',(0.,0.,-1.));
#380=DIRECTION('',(0.,1.,0.));
#381=DIRECTION('center_axis',(0.,1.,0.));
#382=DIRECTION('ref_axis',(0.,0.,-1.));
#383=DIRECTION('center_axis',(0.,1.,0.));
#384=DIRECTION('ref_axis',(1.,0.,0.));
#385=DIRECTION('center_axis',(0.,1.,0.));
#386=DIRECTION('ref_axis',(1.,0.,0.));
#387=DIRECTION('center_axis',(0.,1.,0.));
#388=DIRECTION('ref_axis',(1.,0.,0.));
#389=DIRECTION('',(0.,1.,0.));
#390=DIRECTION('center_axis',(0.,1.,0.));
#391=DIRECTION('ref_axis',(1.,0.,0.));
#392=DIRECTION('center_axis',(0.,1.,0.));
#393=DIRECTION('ref_axis',(1.,0.,0.));
#394=DIRECTION('',(0.,1.,0.));
#395=DIRECTION('center_axis',(0.,1.,0.));
#396=DIRECTION('ref_axis',(1.,0.,0.));
#397=DIRECTION('center_axis',(0.,1.,0.));
#398=DIRECTION('ref_axis',(1.,0.,0.));
#399=DIRECTION('center_axis',(1.05739552392928E-16,0.,-1.));
#400=DIRECTION('ref_axis',(-1.,0.,-1.05739552392928E-16));
#401=DIRECTION('',(1.,0.,1.05739552392928E-16));
#402=DIRECTION('',(0.,1.,0.));
#403=DIRECTION('',(-1.,0.,-1.05739552392928E-16));
#404=DIRECTION('',(0.,1.,0.));
#405=DIRECTION('center_axis',(1.,0.,0.));
#406=DIRECTION('ref_axis',(0.,0.,-1.));
#407=DIRECTION('',(0.,0.,1.));
#408=DIRECTION('',(0.,0.,-1.));
#409=DIRECTION('',(0.,1.,0.));
#410=DIRECTION('center_axis',(0.,0.,1.));
#411=DIRECTION('ref_axis',(1.,0.,0.));
#412=DIRECTION('',(-1.,0.,0.));
#413=DIRECTION('',(1.,0.,0.));
#414=DIRECTION('',(0.,1.,0.));
#415=DIRECTION('center_axis',(-1.,0.,2.04382027045405E-16));
#416=DIRECTION('ref_axis',(2.04382027045405E-16,0.,1.));
#417=DIRECTION('',(-2.04382027045405E-16,0.,-1.));
#418=DIRECTION('',(2.04382027045405E-16,0.,1.));
#419=DIRECTION('center_axis',(0.,1.,0.));
#420=DIRECTION('ref_axis',(0.,0.,1.));
#421=DIRECTION('center_axis',(0.,1.,0.));
#422=DIRECTION('ref_axis',(1.,0.,0.));
#423=CARTESIAN_POINT('',(0.,0.,0.));
#424=CARTESIAN_POINT('Origin',(-28.4751567978514,102.5,-0.151721176582539));
#425=CARTESIAN_POINT('',(-32.7251567978514,102.5,-0.151721176582539));
#426=CARTESIAN_POINT('Origin',(-28.4751567978514,102.5,-0.151721176582539));
#427=CARTESIAN_POINT('Origin',(24.8872351153871,103.5,9.8183069466421));
#428=CARTESIAN_POINT('',(30.8872351153871,103.5,9.8183069466421));
#429=CARTESIAN_POINT('Origin',(24.8872351153871,103.5,9.8183069466421));
#430=CARTESIAN_POINT('',(30.8872351153871,95.,9.8183069466421));
#431=CARTESIAN_POINT('',(30.8872351153871,103.5,9.8183069466421));
#432=CARTESIAN_POINT('Origin',(24.8872351153871,95.,9.8183069466421));
#433=CARTESIAN_POINT('Origin',(24.8872351153871,95.,9.8183069466421));
#434=CARTESIAN_POINT('',(24.8872351153871,95.,12.8383069466421));
#435=CARTESIAN_POINT('Origin',(24.8872351153871,95.,9.8183069466421));
#436=CARTESIAN_POINT('Origin',(24.8872351153871,103.5,-10.1816930533579));
#437=CARTESIAN_POINT('',(30.8872351153871,103.5,-10.1816930533579));
#438=CARTESIAN_POINT('Origin',(24.8872351153871,103.5,-10.1816930533579));
#439=CARTESIAN_POINT('',(30.8872351153871,95.,-10.1816930533579));
#440=CARTESIAN_POINT('',(30.8872351153871,103.5,-10.1816930533579));
#441=CARTESIAN_POINT('Origin',(24.8872351153871,95.,-10.1816930533579));
#442=CARTESIAN_POINT('Origin',(24.8872351153871,95.,-10.1816930533579));
#443=CARTESIAN_POINT('',(24.8872351153871,95.,-7.1616930533579));
#444=CARTESIAN_POINT('Origin',(24.8872351153871,95.,-10.1816930533579));
#445=CARTESIAN_POINT('Ctrl Pts',(24.8872351153871,90.,12.8383069466421));
#446=CARTESIAN_POINT('Ctrl Pts',(27.9071201230409,90.,12.8383069466421));
#447=CARTESIAN_POINT('Ctrl Pts',(27.9071201230409,90.,9.8183069466421));
#448=CARTESIAN_POINT('Ctrl Pts',(27.9071201230409,90.,6.7983069466421));
#449=CARTESIAN_POINT('Ctrl Pts',(24.8872351153871,90.,6.7983069466421));
#450=CARTESIAN_POINT('Ctrl Pts',(21.8673501077333,90.,6.7983069466421));
#451=CARTESIAN_POINT('Ctrl Pts',(21.8673501077333,90.,9.8183069466421));
#452=CARTESIAN_POINT('Ctrl Pts',(21.8673501077333,90.,12.8383069466421));
#453=CARTESIAN_POINT('Ctrl Pts',(24.8872351153871,90.,12.8383069466421));
#454=CARTESIAN_POINT('Ctrl Pts',(24.8872351153871,95.,12.8383069466421));
#455=CARTESIAN_POINT('Ctrl Pts',(27.9071201230409,95.,12.8383069466421));
#456=CARTESIAN_POINT('Ctrl Pts',(27.9071201230409,95.,9.8183069466421));
#457=CARTESIAN_POINT('Ctrl Pts',(27.9071201230409,95.,6.7983069466421));
#458=CARTESIAN_POINT('Ctrl Pts',(24.8872351153871,95.,6.7983069466421));
#459=CARTESIAN_POINT('Ctrl Pts',(21.8673501077333,95.,6.7983069466421));
#460=CARTESIAN_POINT('Ctrl Pts',(21.8673501077333,95.,9.8183069466421));
#461=CARTESIAN_POINT('Ctrl Pts',(21.8673501077333,95.,12.8383069466421));
#462=CARTESIAN_POINT('Ctrl Pts',(24.8872351153871,95.,12.8383069466421));
#463=CARTESIAN_POINT('',(24.8872351153871,90.,12.8383069466421));
#464=CARTESIAN_POINT('Origin',(24.8872351153871,90.,9.8183069466421));
#465=CARTESIAN_POINT('',(24.8872351153871,90.,12.8383069466421));
#466=CARTESIAN_POINT('Ctrl Pts',(24.8872351153871,90.,-7.1616930533579));
#467=CARTESIAN_POINT('Ctrl Pts',(27.9071201230409,90.,-7.1616930533579));
#468=CARTESIAN_POINT('Ctrl Pts',(27.9071201230409,90.,-10.1816930533579));
#469=CARTESIAN_POINT('Ctrl Pts',(27.9071201230409,90.,-13.2016930533579));
#470=CARTESIAN_POINT('Ctrl Pts',(24.8872351153871,90.,-13.2016930533579));
#471=CARTESIAN_POINT('Ctrl Pts',(21.8673501077333,90.,-13.2016930533579));
#472=CARTESIAN_POINT('Ctrl Pts',(21.8673501077333,90.,-10.1816930533579));
#473=CARTESIAN_POINT('Ctrl Pts',(21.8673501077333,90.,-7.1616930533579));
#474=CARTESIAN_POINT('Ctrl Pts',(24.8872351153871,90.,-7.1616930533579));
#475=CARTESIAN_POINT('Ctrl Pts',(24.8872351153871,95.,-7.1616930533579));
#476=CARTESIAN_POINT('Ctrl Pts',(27.9071201230409,95.,-7.1616930533579));
#477=CARTESIAN_POINT('Ctrl Pts',(27.9071201230409,95.,-10.1816930533579));
#478=CARTESIAN_POINT('Ctrl Pts',(27.9071201230409,95.,-13.2016930533579));
#479=CARTESIAN_POINT('Ctrl Pts',(24.8872351153871,95.,-13.2016930533579));
#480=CARTESIAN_POINT('Ctrl Pts',(21.8673501077333,95.,-13.2016930533579));
#481=CARTESIAN_POINT('Ctrl Pts',(21.8673501077333,95.,-10.1816930533579));
#482=CARTESIAN_POINT('Ctrl Pts',(21.8673501077333,95.,-7.1616930533579));
#483=CARTESIAN_POINT('Ctrl Pts',(24.8872351153871,95.,-7.1616930533579));
#484=CARTESIAN_POINT('',(24.8872351153871,90.,-7.1616930533579));
#485=CARTESIAN_POINT('Origin',(24.8872351153871,90.,-10.1816930533579));
#486=CARTESIAN_POINT('',(24.8872351153871,90.,-7.1616930533579));
#487=CARTESIAN_POINT('Ctrl Pts',(-18.9580083423413,90.,9.65827882341746));
#488=CARTESIAN_POINT('Ctrl Pts',(-23.0078541307512,90.,9.65827882341746));
#489=CARTESIAN_POINT('Ctrl Pts',(-23.0078541307512,90.,13.7082788234175));
#490=CARTESIAN_POINT('Ctrl Pts',(-23.0078541307512,90.,17.7582788234175));
#491=CARTESIAN_POINT('Ctrl Pts',(-18.9580083423413,90.,17.7582788234175));
#492=CARTESIAN_POINT('Ctrl Pts',(-14.9081625539314,90.,17.7582788234175));
#493=CARTESIAN_POINT('Ctrl Pts',(-14.9081625539314,90.,13.7082788234175));
#494=CARTESIAN_POINT('Ctrl Pts',(-14.9081625539314,90.,9.65827882341746));
#495=CARTESIAN_POINT('Ctrl Pts',(-18.9580083423413,90.,9.65827882341746));
#496=CARTESIAN_POINT('Ctrl Pts',(-18.9580083423413,101.5,9.65827882341746));
#497=CARTESIAN_POINT('Ctrl Pts',(-23.0078541307512,101.5,9.65827882341746));
#498=CARTESIAN_POINT('Ctrl Pts',(-23.0078541307512,101.5,13.7082788234175));
#499=CARTESIAN_POINT('Ctrl Pts',(-23.0078541307512,101.5,17.7582788234175));
#500=CARTESIAN_POINT('Ctrl Pts',(-18.9580083423413,101.5,17.7582788234175));
#501=CARTESIAN_POINT('Ctrl Pts',(-14.9081625539314,101.5,17.7582788234175));
#502=CARTESIAN_POINT('Ctrl Pts',(-14.9081625539314,101.5,13.7082788234175));
#503=CARTESIAN_POINT('Ctrl Pts',(-14.9081625539314,101.5,9.65827882341746));
#504=CARTESIAN_POINT('Ctrl Pts',(-18.9580083423413,101.5,9.65827882341746));
#505=CARTESIAN_POINT('',(-18.9580083423413,90.,9.65827882341746));
#506=CARTESIAN_POINT('Origin',(-18.9580083423413,90.,13.7082788234175));
#507=CARTESIAN_POINT('',(-18.9580083423413,101.5,9.65827882341746));
#508=CARTESIAN_POINT('',(-18.9580083423413,90.,9.65827882341746));
#509=CARTESIAN_POINT('Origin',(-18.9580083423413,101.5,13.7082788234175));
#510=CARTESIAN_POINT('Origin',(-18.9580083423413,101.5,13.7082788234175));
#511=CARTESIAN_POINT('Ctrl Pts',(-18.9661833917958,90.,-9.83029309744285));
#512=CARTESIAN_POINT('Ctrl Pts',(-14.9163376033859,90.,-9.83029309744285));
#513=CARTESIAN_POINT('Ctrl Pts',(-14.9163376033859,90.,-13.8802930974429));
#514=CARTESIAN_POINT('Ctrl Pts',(-14.9163376033859,90.,-17.9302930974428));
#515=CARTESIAN_POINT('Ctrl Pts',(-18.9661833917958,90.,-17.9302930974429));
#516=CARTESIAN_POINT('Ctrl Pts',(-23.0160291802057,90.,-17.9302930974428));
#517=CARTESIAN_POINT('Ctrl Pts',(-23.0160291802057,90.,-13.8802930974429));
#518=CARTESIAN_POINT('Ctrl Pts',(-23.0160291802057,90.,-9.83029309744285));
#519=CARTESIAN_POINT('Ctrl Pts',(-18.9661833917958,90.,-9.83029309744285));
#520=CARTESIAN_POINT('Ctrl Pts',(-18.9661833917958,101.5,-9.83029309744285));
#521=CARTESIAN_POINT('Ctrl Pts',(-14.9163376033859,101.5,-9.83029309744285));
#522=CARTESIAN_POINT('Ctrl Pts',(-14.9163376033859,101.5,-13.8802930974429));
#523=CARTESIAN_POINT('Ctrl Pts',(-14.9163376033859,101.5,-17.9302930974428));
#524=CARTESIAN_POINT('Ctrl Pts',(-18.9661833917958,101.5,-17.9302930974429));
#525=CARTESIAN_POINT('Ctrl Pts',(-23.0160291802057,101.5,-17.9302930974428));
#526=CARTESIAN_POINT('Ctrl Pts',(-23.0160291802057,101.5,-13.8802930974429));
#527=CARTESIAN_POINT('Ctrl Pts',(-23.0160291802057,101.5,-9.83029309744285));
#528=CARTESIAN_POINT('Ctrl Pts',(-18.9661833917958,101.5,-9.83029309744285));
#529=CARTESIAN_POINT('',(-18.9661833917958,90.,-9.83029309744285));
#530=CARTESIAN_POINT('Origin',(-18.9661833917958,90.,-13.8802930974429));
#531=CARTESIAN_POINT('',(-18.9661833917958,101.5,-9.83029309744285));
#532=CARTESIAN_POINT('',(-18.9661833917958,90.,-9.83029309744285));
#533=CARTESIAN_POINT('Origin',(-18.9661833917958,101.5,-13.8802930974429));
#534=CARTESIAN_POINT('Origin',(-18.9661833917958,101.5,-13.8802930974429));
#535=CARTESIAN_POINT('Origin',(-28.4751567978514,90.,-0.151721176582539));
#536=CARTESIAN_POINT('',(-32.7251567978514,97.,-0.151721176582539));
#537=CARTESIAN_POINT('Origin',(-28.4751567978514,97.,-0.151721176582539));
#538=CARTESIAN_POINT('',(-32.7251567978514,90.,-0.151721176582539));
#539=CARTESIAN_POINT('Origin',(-28.4751567978514,90.,-0.151721176582539));
#540=CARTESIAN_POINT('',(-39.4751567978514,90.,-0.151721176582538));
#541=CARTESIAN_POINT('Origin',(-28.4751567978514,90.,-0.151721176582539));
#542=CARTESIAN_POINT('',(-39.4751567978514,97.,-0.151721176582538));
#543=CARTESIAN_POINT('',(-39.4751567978514,90.,-0.151721176582538));
#544=CARTESIAN_POINT('Origin',(-28.4751567978514,97.,-0.151721176582539));
#545=CARTESIAN_POINT('Origin',(-28.4751567978514,97.,-0.15172117658254));
#546=CARTESIAN_POINT('Origin',(37.3867591536892,90.,-21.910081614227));
#547=CARTESIAN_POINT('',(-46.6100423837012,90.,-21.910081614227));
#548=CARTESIAN_POINT('',(37.3867591536892,90.,-21.910081614227));
#549=CARTESIAN_POINT('',(-46.6100423837012,90.,-21.910081614227));
#550=CARTESIAN_POINT('',(-46.6100423837012,103.5,-21.910081614227));
#551=CARTESIAN_POINT('',(-46.6100423837012,90.,-21.910081614227));
#552=CARTESIAN_POINT('',(37.3867591536892,103.5,-21.910081614227));
#553=CARTESIAN_POINT('',(-46.6100423837012,103.5,-21.910081614227));
#554=CARTESIAN_POINT('',(37.3867591536892,90.,-21.910081614227));
#555=CARTESIAN_POINT('Origin',(37.3867591536892,90.,21.5466955075112));
#556=CARTESIAN_POINT('',(37.3867591536892,90.,21.5466955075112));
#557=CARTESIAN_POINT('',(37.3867591536892,90.,-21.910081614227));
#558=CARTESIAN_POINT('',(37.3867591536892,103.5,21.5466955075112));
#559=CARTESIAN_POINT('',(37.3867591536892,103.5,-21.910081614227));
#560=CARTESIAN_POINT('',(37.3867591536892,90.,21.5466955075112));
#561=CARTESIAN_POINT('Origin',(-46.6100423837012,90.,21.5466955075112));
#562=CARTESIAN_POINT('',(-46.6100423837012,90.,21.5466955075112));
#563=CARTESIAN_POINT('',(37.3867591536892,90.,21.5466955075112));
#564=CARTESIAN_POINT('',(-46.6100423837012,103.5,21.5466955075112));
#565=CARTESIAN_POINT('',(37.3867591536892,103.5,21.5466955075112));
#566=CARTESIAN_POINT('',(-46.6100423837012,90.,21.5466955075112));
#567=CARTESIAN_POINT('Origin',(-46.6100423837012,90.,-21.910081614227));
#568=CARTESIAN_POINT('',(-46.6100423837012,90.,21.5466955075112));
#569=CARTESIAN_POINT('',(-46.6100423837012,103.5,21.5466955075112));
#570=CARTESIAN_POINT('Origin',(-4.611641615006,103.5,-0.181693053357908));
#571=CARTESIAN_POINT('Origin',(-4.611641615006,90.,-0.181693053357908));
#572=UNCERTAINTY_MEASURE_WITH_UNIT(LENGTH_MEASURE(0.01),#576,
'DISTANCE_ACCURACY_VALUE',
'Maximum model space distance between geometric entities at asserted c
onnectivities');
#573=UNCERTAINTY_MEASURE_WITH_UNIT(LENGTH_MEASURE(0.01),#576,
'DISTANCE_ACCURACY_VALUE',
'Maximum model space distance between geometric entities at asserted c
onnectivities');
#574=(
GEOMETRIC_REPRESENTATION_CONTEXT(3)
GLOBAL_UNCERTAINTY_ASSIGNED_CONTEXT((#572))
GLOBAL_UNIT_ASSIGNED_CONTEXT((#576,#577,#578))
REPRESENTATION_CONTEXT('','3D')
);
#575=(
GEOMETRIC_REPRESENTATION_CONTEXT(3)
GLOBAL_UNCERTAINTY_ASSIGNED_CONTEXT((#573))
GLOBAL_UNIT_ASSIGNED_CONTEXT((#576,#577,#578))
REPRESENTATION_CONTEXT('','3D')
);
#576=(
LENGTH_UNIT()
NAMED_UNIT(*)
SI_UNIT(.MILLI.,.METRE.)
);
#577=(
NAMED_UNIT(*)
PLANE_ANGLE_UNIT()
SI_UNIT($,.RADIAN.)
);
#578=(
NAMED_UNIT(*)
SI_UNIT($,.STERADIAN.)
SOLID_ANGLE_UNIT()
);
#579=SHAPE_DEFINITION_REPRESENTATION(#580,#581);
#580=PRODUCT_DEFINITION_SHAPE('',$,#583);
#581=SHAPE_REPRESENTATION('',(#304),#574);
#582=PRODUCT_DEFINITION_CONTEXT('part definition',#587,'design');
#583=PRODUCT_DEFINITION('ST3215-20200328_ASM','(\X2\672A4FDD5B58\X0\)',
#584,#582);
#584=PRODUCT_DEFINITION_FORMATION('',$,#589);
#585=PRODUCT_RELATED_PRODUCT_CATEGORY('(\X2\672A4FDD5B58\X0\)',
'(\X2\672A4FDD5B58\X0\)',(#589));
#586=APPLICATION_PROTOCOL_DEFINITION('international standard',
'automotive_design',2009,#587);
#587=APPLICATION_CONTEXT(
'Core Data for Automotive Mechanical Design Process');
#588=PRODUCT_CONTEXT('part definition',#587,'mechanical');
#589=PRODUCT('ST3215-20200328_ASM','(\X2\672A4FDD5B58\X0\)',$,(#588));
#590=PRESENTATION_STYLE_ASSIGNMENT((#591));
#591=SURFACE_STYLE_USAGE(.BOTH.,#592);
#592=SURFACE_SIDE_STYLE('',(#593));
#593=SURFACE_STYLE_FILL_AREA(#594);
#594=FILL_AREA_STYLE('\X2\94A2\X0\ - \X2\7F0E5149\X0\',(#595));
#595=FILL_AREA_STYLE_COLOUR('\X2\94A2\X0\ - \X2\7F0E5149\X0\',#596);
#596=COLOUR_RGB('\X2\94A2\X0\ - \X2\7F0E5149\X0\',0.627450980392157,0.627450980392157,
0.627450980392157);
ENDSEC;
END-ISO-10303-21;
